    <svg width="65" height="64" viewBox="0 0 65 64" fill="none" xmlns="http://www.w3.org/2000/svg">
        <path
            d="M58.8682 16.7594L59.0182 16.6594C58.7182 16.1094 58.2682 15.6094 57.8182 15.3594L33.6682 1.45938C33.2682 1.20938 32.7182 1.10938 32.1182 1.10938C31.5182 1.10938 30.9682 1.25938 30.5682 1.45938L6.56816 15.4094C5.71816 15.9094 5.11816 17.1594 5.11816 18.1094V45.9594C5.11816 46.5094 5.21816 47.1094 5.56816 47.6594L5.46816 47.7094C5.71816 48.1094 6.06816 48.4594 6.41816 48.6594L30.5182 62.6094C30.9182 62.8594 31.4682 62.9594 32.0682 62.9594C32.6682 62.9594 33.2182 62.8094 33.6182 62.6094L57.6182 48.6594C58.4682 48.1594 59.0682 46.9094 59.0682 45.9594V18.0594C59.1182 17.6594 59.0682 17.2094 58.8682 16.7594ZM32.1182 51.7594C21.2182 51.7594 12.3682 42.9094 12.3682 32.0094C12.3682 21.1094 21.2182 12.2594 32.1182 12.2594C39.4682 12.2594 45.8682 16.3094 49.2682 22.2594L42.7682 26.0094C40.6682 22.2594 36.6682 19.7594 32.1182 19.7594C25.3682 19.7594 19.8682 25.2594 19.8682 32.0094C19.8682 38.7594 25.3682 44.2594 32.1182 44.2594C36.6682 44.2594 40.6682 41.7594 42.7682 38.0594L49.2182 41.8594C45.8182 47.7594 39.4182 51.7594 32.1182 51.7594ZM57.6182 31.0094H56.0182L55.5682 33.0094H57.6182V35.5094H55.1182L54.5182 38.5094H52.0682L52.6682 35.5094H50.7682L50.1682 38.5094H47.7682L48.3682 35.5094H47.1182V33.0094H48.8682L49.3182 31.0094H47.1182V28.5094H49.7682L50.3682 25.5094H52.8182L52.2182 28.5094H54.1182L54.7182 25.5094H57.1182L56.5182 28.5094H57.6182V31.0094ZM51.2682 33.0094H53.1682L53.6182 31.0094H51.7182L51.2682 33.0094Z"
            fill="#2C2E32" />
    </svg>