<svg width="65" height="64" viewBox="0 0 65 64" fill="none" xmlns="http://www.w3.org/2000/svg">
<g clip-path="url(#clip0_80_88)">
<path d="M23.9267 49.0692C14.3307 51.7502 29.7652 57.2887 41.9842 52.0537C39.9827 51.2757 38.5472 50.3782 38.5472 50.3782C33.0987 51.4082 30.5712 51.4892 25.6252 50.9242C21.5432 50.4567 23.9267 49.0692 23.9267 49.0692ZM40.5212 43.8392C33.2992 45.2287 29.1277 45.1842 23.8442 44.6392C19.7587 44.2167 22.4332 42.2367 22.4332 42.2367C11.8647 45.7447 28.3167 49.7252 43.0877 45.4047C41.5177 44.8517 40.5212 43.8392 40.5212 43.8392ZM46.1807 13.5517C46.1812 13.5517 24.8152 18.8862 35.0192 30.6452C38.0312 34.1127 34.2292 37.2302 34.2292 37.2302C34.2292 37.2302 41.8737 33.2847 38.3637 28.3417C35.0842 23.7342 32.5702 21.4452 46.1807 13.5517ZM51.1797 54.1237C51.1797 54.1237 52.9442 55.5787 49.2357 56.7032C42.1847 58.8392 19.8827 59.4832 13.6882 56.7887C11.4632 55.8197 15.6377 54.4762 16.9512 54.1927C18.3207 53.8962 19.1027 53.9502 19.1027 53.9502C16.6267 52.2067 3.09622 57.3752 12.2317 58.8577C37.1422 62.8957 57.6402 57.0392 51.1797 54.1237ZM42.6182 38.9572C43.8157 38.1402 45.4697 37.4307 45.4697 37.4307C45.4697 37.4307 40.7577 38.2732 36.0632 38.6677C30.3162 39.1497 24.1517 39.2447 21.0572 38.8307C13.7312 37.8512 25.0737 35.1567 25.0737 35.1567C25.0737 35.1567 20.6677 34.8587 15.2517 37.4787C8.84572 40.5762 31.0972 41.9882 42.6182 38.9572ZM45.4227 46.5297C45.3687 46.6747 45.1887 46.8377 45.1887 46.8377C60.8252 42.7272 55.0762 32.3482 47.5997 34.9752C46.9437 35.2072 46.5997 35.7467 46.5997 35.7467C46.5997 35.7467 47.0142 35.5797 47.9387 35.3867C51.7182 34.5992 57.1332 40.4462 45.4227 46.5297ZM32.2087 35.0437C29.9017 29.8292 22.0787 25.2672 32.2122 17.2642C44.8477 7.29073 38.3642 0.802734 38.3642 0.802734C40.9792 11.1067 29.1387 14.2192 24.8647 20.6362C21.9542 25.0087 26.2932 29.7072 32.2087 35.0437ZM45.8457 60.9177C36.2522 62.7237 24.4187 62.5132 17.4022 61.3547C17.4022 61.3547 18.8392 62.5447 26.2252 63.0202C37.4632 63.7387 54.7252 62.6202 55.1332 57.3022C55.1337 57.3022 54.3482 59.3182 45.8457 60.9177Z" fill="#2C2E32"/>
</g>
<defs>
<clipPath id="clip0_80_88">
<rect width="64" height="64" fill="white" transform="translate(0.118164 0.00927734)"/>
</clipPath>
</defs>
</svg>
