<svg width="65" height="64" viewBox="0 0 65 64" fill="none" xmlns="http://www.w3.org/2000/svg">
<g clip-path="url(#clip0_80_57)">
<path d="M32.1182 15.1753C14.4452 15.1753 0.118164 22.7128 0.118164 32.0093C0.118164 41.3058 14.4452 48.8433 32.1182 48.8433C49.7907 48.8433 64.1182 41.3058 64.1182 32.0093C64.1182 22.7128 49.7912 15.1753 32.1182 15.1753ZM29.1272 20.0803H32.7737V20.0818L31.9012 24.5658H35.1492C37.1927 24.5658 38.6032 24.9228 39.3782 25.6353C40.1547 26.3488 40.3867 27.5038 40.0772 29.1003L38.5507 36.9503H34.8467L36.2977 29.4858C36.4627 28.6368 36.4017 28.0583 36.1152 27.7493C35.8287 27.4408 35.2187 27.2868 34.2862 27.2868H31.3722L29.4942 36.9493H25.8487L29.1272 20.0803ZM13.4832 24.5663H20.5497C22.6757 24.5663 24.2272 25.1243 25.2022 26.2403C26.1772 27.3563 26.4702 28.9133 26.0812 30.9133C25.9212 31.7378 25.6497 32.4903 25.2687 33.1733C24.8872 33.8553 24.3887 34.4798 23.7737 35.0458C23.0397 35.7323 22.2247 36.2223 21.3282 36.5138C20.4312 36.8063 19.2882 36.9513 17.8992 36.9513H14.7522L13.8797 41.4363H10.2047L13.4832 24.5663ZM42.1662 24.5663H49.2312C51.3572 24.5663 52.9077 25.1243 53.8827 26.2403H53.8837C54.8587 27.3563 55.1527 28.9133 54.7637 30.9133C54.6037 31.7378 54.3332 32.4903 53.9522 33.1733C53.5707 33.8553 53.0722 34.4798 52.4562 35.0458C51.7227 35.7323 50.9072 36.2223 50.0097 36.5138C49.1127 36.8063 47.9712 36.9513 46.5822 36.9513H43.4347L42.5627 41.4363H38.8877L42.1662 24.5663ZM16.6407 27.2288L15.2697 34.2888H17.5037C18.9852 34.2888 20.0897 34.0108 20.8147 33.4523C21.5397 32.8943 22.0287 31.9618 22.2832 30.6563C22.5257 29.4028 22.4152 28.5168 21.9502 28.0018C21.4852 27.4858 20.5552 27.2283 19.1582 27.2283L16.6407 27.2288ZM45.3222 27.2288L43.9502 34.2888H46.1852C47.6677 34.2888 48.7702 34.0108 49.4962 33.4523C50.2207 32.8943 50.7097 31.9618 50.9637 30.6563C51.2072 29.4028 51.0967 28.5168 50.6317 28.0018C50.1667 27.4858 49.2357 27.2283 47.8397 27.2283L45.3222 27.2288Z" fill="#2C2E32"/>
</g>
<defs>
<clipPath id="clip0_80_57">
<rect width="64" height="64" fill="white" transform="translate(0.118164 0.00927734)"/>
</clipPath>
</defs>
</svg>
