<svg width="65" height="64" viewBox="0 0 65 64" fill="none" xmlns="http://www.w3.org/2000/svg">
<path d="M24.7832 31.0093H39.3627C43.4212 31.0093 46.6182 27.5753 46.6182 23.4998V9.60078C46.6182 5.64478 43.3022 2.67278 39.3407 2.01278C36.8337 1.59528 34.2432 1.40528 31.7472 1.41728C29.2522 1.42878 26.9412 1.64128 24.8447 2.01278C18.6672 3.10328 17.6182 5.38828 17.6182 9.60078V15.0093H32.1182V17.0093H12.0062C7.76417 17.0093 4.04917 19.5633 2.88767 24.4148C1.54717 29.9748 1.48767 33.3743 2.88767 39.1798C3.92517 43.5008 6.40267 46.5093 10.6452 46.5093H15.6182V39.9853C15.6182 35.1668 19.8322 31.0093 24.7832 31.0093ZM23.8642 11.4543C22.3512 11.4543 21.1252 10.2148 21.1252 8.68178C21.1252 7.14228 22.3507 5.89128 23.8642 5.89128C25.3717 5.89128 26.6037 7.14228 26.6037 8.68178C26.6032 10.2148 25.3712 11.4543 23.8642 11.4543ZM61.2587 24.4148C60.2097 20.1908 58.2072 17.0093 53.9592 17.0093H48.6182V23.4998C48.6182 28.5248 44.2212 32.5093 39.3627 32.5093H24.7832C20.7892 32.5093 17.6182 36.1723 17.6182 40.1723V54.0723C17.6182 58.0273 20.9907 60.3543 24.8492 61.4893C29.4702 62.8478 33.8462 63.0933 39.3747 61.4893C43.0492 60.4248 46.6182 58.2838 46.6182 54.0723V48.5093H32.1182V46.5093H53.9592C58.2012 46.5093 59.7827 43.6213 61.2587 39.1793C62.7822 34.6068 62.7167 30.2798 61.2587 24.4148ZM40.2812 52.2178C41.7947 52.2178 43.0207 53.4573 43.0207 54.9913C43.0207 56.5293 41.7952 57.7808 40.2812 57.7808C38.7737 57.7808 37.5422 56.5298 37.5422 54.9913C37.5422 53.4573 38.7737 52.2178 40.2812 52.2178Z" fill="#2C2E32"/>
</svg>
