<svg width="65" height="64" viewBox="0 0 65 64" fill="none" xmlns="http://www.w3.org/2000/svg">
<g clip-path="url(#clip0_80_105)">
<path d="M58.3442 3.33084C57.4478 5.48118 56.3004 7.51799 54.9257 9.39884C48.9026 3.37929 40.736 -0.00262781 32.2207 -0.00366211C14.6102 -0.00366211 0.118164 14.5003 0.118164 32.1303C0.117977 36.4839 1.00177 40.7921 2.71597 44.7939C4.43017 48.7958 6.93909 52.4079 10.0907 55.4113L11.2747 56.4613C17.0611 61.34 24.385 64.0179 31.9537 64.0223C48.6972 64.0223 62.7722 50.9023 63.9642 34.1808C64.8397 25.9953 62.4387 15.6423 58.3442 3.33084ZM14.6517 55.5943C14.3939 55.9119 14.0685 56.168 13.6993 56.3439C13.33 56.5199 12.9262 56.6112 12.5172 56.6113C11.0082 56.6113 9.77366 55.3693 9.77366 53.8603C9.77366 52.3518 11.0162 51.1098 12.5172 51.1098C13.1422 51.1098 13.7597 51.3263 14.2432 51.7268C15.4187 52.6768 15.6022 54.4188 14.6517 55.5943ZM58.2112 45.9753C50.2897 56.5363 33.3712 52.9768 22.5232 53.4853C22.5232 53.4853 20.5972 53.6023 18.6627 53.9188C18.6627 53.9188 19.3877 53.6103 20.3302 53.2518C27.9432 50.6013 31.5452 50.0843 36.1727 47.7088C44.8862 43.2743 53.4997 33.5718 55.2927 23.4773C51.9742 33.1883 41.9177 41.5323 32.7542 44.9248C26.4757 47.2423 15.1352 49.4928 15.1352 49.4928L14.6767 49.2508C6.95566 45.4918 6.72166 28.7623 20.7552 23.3608C26.9007 20.9933 32.7792 22.2938 39.4167 20.7098C46.5042 19.0263 54.7007 13.7078 58.0357 6.77284C61.7712 17.8678 66.2662 35.2388 58.2112 45.9753Z" fill="#2C2E32"/>
</g>
<defs>
<clipPath id="clip0_80_105">
<rect width="64" height="64" fill="white" transform="translate(0.118164 0.00927734)"/>
</clipPath>
</defs>
</svg>
