<svg width="28" height="27" viewBox="0 0 28 27" fill="none" xmlns="http://www.w3.org/2000/svg">
<path d="M9.73669 3.82127C10.5986 -0.804195 17.2879 -0.61561 17.8878 4.05106V4.05106C18.1789 6.31526 20.2527 7.91315 22.5163 7.61735V7.61735C27.1817 7.00768 29.0694 13.4279 24.8166 15.4405V15.4405C22.7531 16.417 21.8743 18.8831 22.8551 20.9445V20.9445C24.8766 25.1932 19.3539 28.9725 16.1256 25.5497V25.5497C14.5593 23.889 11.9423 23.8152 10.2849 25.385V25.385C6.86886 28.6205 1.5679 24.5361 3.82557 20.408V20.408C4.92096 18.4052 4.18244 15.8935 2.17729 14.8023V14.8023C-1.95545 12.5533 0.291029 6.24959 4.91468 7.12113V7.12113C7.158 7.54399 9.31853 6.06547 9.73669 3.82127V3.82127Z" fill="#F7F9FD"/>
</svg>
