<svg width="65" height="64" viewBox="0 0 65 64" fill="none" xmlns="http://www.w3.org/2000/svg">
<g clip-path="url(#clip0_80_62)">
<path d="M54.4132 13.0832C53.4872 13.0832 52.6022 13.1887 51.7607 13.4407C50.9187 13.6927 50.2022 14.0522 49.5712 14.5347C48.9483 14.9952 48.4315 15.5839 48.0557 16.2612C47.6772 16.9352 47.4872 17.7142 47.4872 18.5992C47.4872 19.6927 47.8452 20.7242 48.5402 21.6517C49.2332 22.5992 50.3702 23.3137 51.9072 23.7982L54.9602 24.7457C55.9912 25.0832 56.7082 25.4412 57.0872 25.8412C57.4657 26.2417 57.6552 26.7237 57.6552 27.3137C57.6552 28.1767 57.2762 28.8507 56.5597 29.3137C55.8447 29.7762 54.8137 30.0092 53.4872 30.0092C52.6437 30.0092 51.8232 29.9252 50.9817 29.7572C50.1857 29.5934 49.4092 29.346 48.6652 29.0192C48.4547 28.9352 48.2647 28.8512 48.1397 28.8102C48.0177 28.768 47.8897 28.746 47.7607 28.7452C47.4437 28.7452 47.2762 28.9567 47.2762 29.3977V30.4722C47.2769 30.6756 47.3202 30.8766 47.4032 31.0622C47.4872 31.2522 47.7177 31.4622 48.0557 31.6522C48.6027 31.9662 49.4227 32.2417 50.4757 32.4937C51.5282 32.7457 52.6242 32.8727 53.7177 32.8727C54.7927 32.8727 55.7822 32.7242 56.7297 32.4312C57.6337 32.1557 58.4132 31.7767 59.0657 31.2512C59.7177 30.7462 60.2237 30.1147 60.6027 29.3977C60.9597 28.6832 61.1497 27.8627 61.1497 26.9567C61.1497 25.8627 60.8332 24.8727 60.1807 24.0092C59.5287 23.1457 58.4352 22.4722 56.9192 21.9877L53.9292 21.0402C52.8142 20.6837 52.0342 20.2822 51.6122 19.8822C51.1922 19.4837 50.9817 18.9782 50.9817 18.3882C50.9817 17.5252 51.3172 16.9132 51.9717 16.5152C52.6242 16.1147 53.5712 15.9252 54.7707 15.9252C56.2647 15.9252 57.6122 16.1987 58.8137 16.7452C59.1707 16.9137 59.4442 16.9992 59.6122 16.9992C59.9287 16.9992 60.0967 16.7677 60.0967 16.3257V15.3357C60.0967 15.0407 60.0342 14.8102 59.9072 14.6402C59.7822 14.4512 59.5712 14.2827 59.2762 14.1147C59.0652 13.9877 58.7707 13.8627 58.3912 13.7357C57.996 13.6078 57.596 13.495 57.1922 13.3977C56.7492 13.3137 56.3077 13.2297 55.8232 13.1677C55.3555 13.1085 54.8845 13.0802 54.4132 13.0832ZM11.0022 13.1242C9.84416 13.1242 8.74816 13.2512 7.71716 13.5247C6.68566 13.7772 5.80166 14.0932 5.06566 14.4722C4.77066 14.6207 4.58066 14.7672 4.47566 14.9137C4.37016 15.0617 4.32916 15.3137 4.32916 15.6517V16.6832C4.32916 17.1242 4.47566 17.3352 4.77066 17.3352C4.85466 17.3352 4.95966 17.3137 5.10766 17.2727C5.25416 17.2297 5.50566 17.1457 5.84366 16.9992C6.58347 16.7066 7.34323 16.4671 8.11716 16.2827C8.86167 16.101 9.62529 16.0092 10.3917 16.0092C12.0127 16.0092 13.1482 16.3257 13.8232 16.9782C14.4752 17.6297 14.8132 18.7452 14.8132 20.3452V21.8822C13.9717 21.6927 13.1717 21.5247 12.3917 21.4192C11.6127 21.3142 10.8762 21.2512 10.1612 21.2512C7.99116 21.2512 6.28616 21.7982 5.00316 22.8942C3.71766 23.9877 3.08716 25.4407 3.08716 27.2297C3.08716 28.9137 3.61216 30.2612 4.64366 31.2727C5.67666 32.2827 7.08716 32.7887 8.85466 32.7887C11.3397 32.7887 13.4032 31.8197 15.0442 29.8822C15.2444 30.305 15.4619 30.7193 15.6962 31.1242C15.9172 31.4773 16.171 31.8087 16.4542 32.1142C16.6652 32.3042 16.8762 32.4092 17.0872 32.4092C17.2542 32.4092 17.4442 32.3452 17.6337 32.2202L18.9602 31.3352C19.2332 31.1252 19.3602 30.9137 19.3602 30.7047C19.3572 30.5326 19.3064 30.3647 19.2137 30.2197C18.9522 29.732 18.727 29.2256 18.5402 28.7047C18.3917 28.2422 18.3077 27.6097 18.3077 26.8297H18.2647V20.0092C18.2647 17.6927 17.6767 15.9662 16.5187 14.8292C15.3387 13.6927 13.5062 13.1242 11.0022 13.1242ZM20.7922 13.6302C20.4542 13.6302 20.2862 13.8197 20.2862 14.1557C20.2862 14.3042 20.3507 14.5777 20.4757 14.9992L25.4227 31.2727C25.5497 31.6727 25.6962 31.9662 25.8662 32.0932C26.0342 32.2417 26.2862 32.3042 26.6652 32.3042H28.4752C28.8547 32.3042 29.1487 32.2417 29.3172 32.0932C29.4872 31.9467 29.6127 31.6732 29.7177 31.2512L32.9602 17.6927L36.2237 31.2727C36.3077 31.6927 36.4537 31.9662 36.6237 32.1147C36.7922 32.2607 37.0652 32.3257 37.4657 32.3257H39.2762C39.6337 32.3257 39.9072 32.2422 40.0752 32.1147C40.2452 31.9882 40.3917 31.7147 40.5187 31.2947L45.5927 15.0192C45.6767 14.7892 45.7177 14.6207 45.7392 14.4937C45.7607 14.3667 45.7822 14.2607 45.7822 14.1557C45.7822 13.7982 45.5927 13.6307 45.2547 13.6307H43.2982C42.9197 13.6307 42.6442 13.7137 42.4762 13.8412C42.3297 13.9662 42.1812 14.2412 42.0562 14.6612L38.4132 28.7677L35.0867 14.6622C35.0037 14.2622 34.8547 13.9672 34.6867 13.8422C34.5187 13.6932 34.2447 13.6307 33.8447 13.6307H32.1612C31.7822 13.6307 31.4872 13.7142 31.3172 13.8417C31.1497 13.9667 31.0232 14.2417 30.9192 14.6617L27.6342 28.5997L24.0967 14.6622C23.9717 14.2622 23.8447 13.9672 23.6767 13.8422C23.5282 13.6932 23.2547 13.6307 22.8547 13.6307L20.7922 13.6302ZM10.9382 23.7572C11.6001 23.7577 12.2614 23.7994 12.9182 23.8822C13.5698 23.965 14.2162 24.085 14.8542 24.2417V25.1242C14.8542 25.8417 14.7702 26.4507 14.6432 26.9567C14.5182 27.4617 14.2642 27.9042 13.9282 28.3042C13.3597 28.9352 12.6862 29.3977 11.9282 29.6517C11.1702 29.9037 10.4537 30.0307 9.76016 30.0307C8.79166 30.0307 8.05516 29.7767 7.54916 29.2512C7.02216 28.7462 6.77016 28.0092 6.77016 27.0192C6.77016 25.9662 7.10766 25.1672 7.80116 24.5992C8.49666 24.0307 9.52816 23.7572 10.9382 23.7572ZM59.1182 36.6832C56.9022 36.7147 54.2862 37.2092 52.3077 38.5992C51.6962 39.0407 51.8017 39.6302 52.4757 39.5462C54.7297 39.2727 59.6957 38.6832 60.5807 39.8197C61.4657 40.9347 59.5927 45.6297 58.7492 47.7147C58.4972 48.3447 59.0442 48.5992 59.6122 48.1147C63.3172 44.9992 64.2862 38.4937 63.5282 37.5462C63.1497 37.0837 61.3342 36.6512 59.1182 36.6832ZM0.933158 37.9387C0.470158 37.9967 0.259658 38.5567 0.749158 38.9992C9.00316 46.4502 19.9287 50.9352 32.0557 50.9352C40.7082 50.9352 50.7707 48.2202 57.6962 43.1052C58.8327 42.2607 57.8452 40.9782 56.6862 41.5032C48.9197 44.7882 40.4757 46.3882 32.7922 46.3882C21.4032 46.3882 10.3922 43.2517 1.46566 38.0717C1.27066 37.9562 1.08816 37.9197 0.933658 37.9387H0.933158Z" fill="#2C2E32"/>
</g>
<defs>
<clipPath id="clip0_80_62">
<rect width="64" height="64" fill="white" transform="translate(0.118164 0.00927734)"/>
</clipPath>
</defs>
</svg>
