<svg width="65" height="64" viewBox="0 0 65 64" fill="none" xmlns="http://www.w3.org/2000/svg">
<g clip-path="url(#clip0_80_64)">
<path d="M29.8131 0.0852834C29.5711 0.110783 28.8156 0.200283 28.1491 0.278783C25.4621 0.585283 22.4151 1.39228 19.7411 2.51878C10.0636 6.56228 2.78012 15.4338 0.770617 25.6093C0.297617 28.0293 0.182617 29.2183 0.182617 32.0093C0.182617 35.6068 0.540117 38.0893 1.48762 41.2263C4.58512 51.4913 12.6491 59.5423 22.9406 62.6518C26.0381 63.5873 28.5341 63.9448 32.1181 63.9448C35.7156 63.9448 38.1981 63.5873 41.3351 62.6398C51.6001 59.5423 59.6511 51.4783 62.7606 41.1868C63.6961 38.0893 64.0536 35.5933 64.0536 32.0093C64.0536 30.4858 63.9776 28.7458 63.8876 28.1048C62.8506 20.7068 59.8036 14.4858 54.7236 9.40378C49.6531 4.36078 43.4581 1.30228 36.2131 0.265283C35.2151 0.124283 30.5941 -0.00471662 29.8131 0.0852834ZM19.3816 20.2453C20.0616 20.4503 20.3796 20.6423 20.8406 21.1028C21.7371 22.0128 21.9421 22.5113 21.9421 23.8803C21.9421 24.9058 21.9031 25.0973 21.5966 25.6343C21.0066 26.6323 19.6376 27.5543 18.6906 27.5793C18.0241 27.5933 18.0516 27.2983 18.7806 26.5308C19.7531 25.5193 19.8936 25.1358 19.8936 23.6243C19.8816 22.1658 19.7021 21.6673 19.0241 21.2573C18.4601 20.9118 17.8466 20.9373 16.9501 21.3588C14.6201 22.4738 12.0986 26.1853 11.1141 29.9878C9.80762 35.0563 12.1241 39.1128 15.9386 38.4213C17.0516 38.2163 19.1511 37.1423 20.0616 36.2963C20.8156 35.6068 20.8156 35.5933 20.8916 34.7363C21.0596 32.9428 22.3251 31.1518 24.0166 30.3198C24.7956 29.9348 24.9891 29.8978 26.0381 29.8978C27.0361 29.8978 27.2666 29.9488 27.7531 30.2163C29.3016 31.1013 28.9816 33.1613 27.3056 33.1613C26.3331 33.1613 25.8331 32.6613 26.5381 32.3943C27.2296 32.1383 26.9716 31.1773 26.1671 30.9603C25.2196 30.7163 24.1436 31.3568 23.4656 32.5853C22.6456 34.0703 22.6081 35.8373 23.3876 36.6423C24.1436 37.4488 25.0906 36.8103 25.8211 34.9778C26.2041 34.0443 26.7546 33.5443 27.3956 33.5443C27.9581 33.5443 28.0616 33.8903 27.8171 34.9408C27.4581 36.5658 27.7021 36.9878 28.7136 36.4898C29.0456 36.3353 29.5966 35.9783 29.9286 35.7223L30.5556 35.2223L30.9796 33.0073C31.4406 30.5248 31.6181 30.1908 32.5656 30.0133C33.4756 29.8453 33.6806 30.2943 33.3466 31.7143L33.1666 32.5093L33.8331 31.8293C35.4071 30.2163 37.3406 29.4233 38.0066 30.0893C38.3641 30.4468 38.3251 30.8958 37.8136 32.4818C37.5711 33.2378 37.2371 34.4293 37.0851 35.1068C36.8546 36.1303 36.8406 36.3743 36.9701 36.5408C37.3801 37.0268 38.6336 36.5268 39.7471 35.4388L40.3996 34.8003L40.4776 33.3783C40.5536 31.7398 40.7061 31.1518 41.1416 30.6263C41.5516 30.1403 42.2941 29.7828 42.6906 29.8843C43.0871 29.9878 43.0871 30.3708 42.7296 31.4978C42.2296 33.0463 42.2821 36.6168 42.7941 36.6168C42.9991 36.6168 44.0476 35.5168 44.7141 34.5953L45.2121 33.9153L44.8156 33.5073C44.1241 32.7773 43.9581 32.3043 43.9581 31.1128C43.9581 30.2438 44.0226 29.9233 44.2391 29.4993C44.5986 28.8353 45.1611 28.3493 45.8271 28.1558C46.5301 27.9388 47.4011 28.2963 47.7586 28.9368C48.1181 29.5893 48.0286 31.0483 47.5671 32.0483L47.2351 32.7768H47.6826C48.2976 32.7768 48.5401 32.6243 49.6416 31.5873C50.2176 31.0368 50.8836 30.5623 51.3816 30.3318C53.3406 29.4118 55.6456 29.8843 56.0281 31.2923C56.3481 32.4193 55.6456 33.2123 54.4151 33.1223C53.5321 33.0583 53.3661 32.8273 53.8781 32.3943C54.7996 31.6243 53.8781 30.6403 52.5596 30.9978C51.8426 31.1908 51.0361 31.9958 50.6146 32.9313C49.7686 34.8003 50.2176 37.0013 51.4326 37.0013C51.9191 37.0013 52.7781 36.0408 53.1101 35.1068C53.5066 34.0308 54.3386 33.3533 54.9656 33.5968C55.3116 33.7243 55.3371 34.0698 55.1201 35.1578C54.8761 36.3493 54.8386 37.4628 55.0301 37.9743C55.1066 38.1653 55.3371 38.5248 55.5556 38.7673C55.9636 39.2278 55.9776 39.3943 55.6316 39.6128C55.4656 39.7278 55.2466 39.6773 54.7101 39.3828C53.9676 38.9978 53.3271 38.3063 53.0966 37.6538L52.9561 37.2708L52.4441 37.6538C52.1491 37.8588 51.6886 38.0893 51.4206 38.1653C50.3581 38.4468 49.0516 37.7183 48.4386 36.4898C48.1941 36.0148 48.1181 34.6208 48.2976 34.0833C48.3996 33.7883 48.3996 33.7883 47.9891 33.9933C47.7726 34.1088 47.3116 34.2358 46.9541 34.2748C46.3641 34.3398 46.2741 34.4038 45.6866 35.1458C44.8546 36.1808 43.3816 37.5778 42.7801 37.8728C41.5011 38.5113 41.0791 38.3318 40.7451 37.0128L40.5146 36.1303L39.9636 36.6168C39.2606 37.2318 37.8526 37.9743 37.0456 38.1538C36.2781 38.3198 35.4581 38.0758 35.1256 37.5638C34.6281 36.7963 34.7941 35.1713 35.5866 32.9818C36.1746 31.3568 35.7531 31.3318 34.2686 32.8803C33.1671 34.0443 32.6941 34.8763 32.3876 36.1693C32.0676 37.5133 31.6826 37.9993 30.8136 38.2043C30.2881 38.3198 30.0436 37.9993 30.1476 37.2963L30.2236 36.7318L29.7371 37.0658C29.0456 37.5388 28.1746 37.9743 27.5731 38.1403C26.9716 38.3063 26.1786 38.1283 25.9871 37.7943C25.6416 37.2068 25.6416 37.2068 25.1046 37.6283C23.9386 38.5758 22.2746 38.3063 21.4306 37.0523L21.1606 36.6558L20.3171 37.4368C17.8836 39.6638 14.8386 40.6618 12.5851 39.9703C9.71762 39.1013 8.13162 36.6423 8.15712 33.0973C8.16912 29.5388 9.74312 25.7888 12.3936 23.0113C13.8916 21.4488 15.2996 20.5268 16.7336 20.1813C17.7686 19.9253 18.3976 19.9383 19.3816 20.2453Z" fill="#2C2E32"/>
<path d="M45.3271 29.3473C45.0456 29.6283 45.1491 30.7553 45.5071 31.4723C45.6866 31.8433 45.8781 32.1383 45.9421 32.1383C45.9931 32.1383 46.1081 31.8433 46.1981 31.4838C46.5181 30.1538 45.9421 28.7318 45.3271 29.3473Z" fill="#2C2E32"/>
</g>
<defs>
<clipPath id="clip0_80_64">
<rect width="64" height="64" fill="white" transform="translate(0.118164 0.00927734)"/>
</clipPath>
</defs>
</svg>
