<svg width="65" height="64" viewBox="0 0 65 64" fill="none" xmlns="http://www.w3.org/2000/svg">
<g clip-path="url(#clip0_80_72)">
<path d="M62.5181 26.0593C60.3681 24.8093 57.5181 24.6593 55.1181 25.3593C54.8181 22.7593 53.1181 20.5093 51.1181 18.9093L50.3181 18.2593L49.6181 19.0593C48.2681 20.6093 47.8681 23.2093 48.0681 25.2093C48.2181 26.6593 48.6681 28.1593 49.5681 29.3593C48.8681 29.7593 48.1181 30.3093 47.4181 30.5593C46.0181 31.0593 44.4681 31.5593 42.9681 31.5593H39.6181V24.5093H33.1181V12.0093H25.6181V18.0093H13.1181V24.5093H6.61813V31.5093H1.01813L0.918135 32.2593C0.668135 35.4593 1.06813 38.5593 2.41813 41.5093L2.96813 42.6093L3.01813 42.7093C6.96813 49.4093 13.8681 52.2093 21.4181 52.2093C36.0181 52.2093 48.0681 45.6593 53.5681 31.9093C57.2681 32.1093 61.0681 31.0093 62.8681 27.4593L63.3181 26.5593L62.5181 26.0593ZM14.1181 19.5093H19.1181V25.0093H14.1181V19.5093ZM20.6681 41.6093C20.6681 42.4593 19.9681 43.1593 19.1181 43.1593C18.2681 43.1593 17.5681 42.4593 17.5681 41.6093C17.5681 40.7593 18.2681 40.0593 19.1181 40.0593C19.9681 40.1093 20.6681 40.7593 20.6681 41.6093ZM14.1181 26.0093H19.1181V31.5093H14.1181V26.0093ZM7.61813 26.0093H13.1181V31.5093H7.61813V26.0093ZM21.4681 51.1093C13.5681 51.0593 9.31813 48.4093 5.81813 44.9093C6.86813 44.9593 7.86813 45.0093 8.76813 45.0093C9.56813 45.0093 10.3681 45.0093 11.1181 44.9593C13.0681 44.8593 14.7681 44.6093 16.1681 44.2093C17.3181 46.8593 19.4181 49.3093 23.1681 51.1093H21.4681ZM25.6181 31.5093H20.1181V26.0093H25.6181V31.5093ZM25.6181 25.0093H20.1181V19.5093H25.6181V25.0093ZM32.1181 31.5093H26.6181V26.0093H32.1181V31.5093ZM32.1181 25.0093H26.6181V19.5093H32.1181V25.0093ZM32.1181 18.5093H26.6181V13.0093H32.1181V18.5093ZM38.6181 31.5093H33.1181V26.0093H38.6181V31.5093ZM19.5181 40.6093C19.4181 40.5593 19.2681 40.5093 19.1181 40.5093C18.5181 40.5093 18.0181 41.0093 18.0181 41.6093C18.0181 42.2093 18.5181 42.7093 19.1181 42.7093C19.7181 42.7093 20.2181 42.2093 20.2181 41.6093C20.2181 41.4593 20.1681 41.3093 20.1181 41.2093C20.0181 41.3593 19.9181 41.4593 19.7181 41.4593C19.4681 41.4593 19.2681 41.2593 19.2681 41.0093C19.3181 40.8093 19.4181 40.6593 19.5181 40.6093Z" fill="#2C2E32"/>
</g>
<defs>
<clipPath id="clip0_80_72">
<rect width="64" height="64" fill="white" transform="translate(0.118164 0.00927734)"/>
</clipPath>
</defs>
</svg>
