<svg width="65" height="64" viewBox="0 0 65 64" fill="none" xmlns="http://www.w3.org/2000/svg">
<g clip-path="url(#clip0_80_76)">
<path d="M22.8682 64.5093C28.8182 64.5093 33.6182 59.7093 33.6182 53.7593V43.0093H22.8682C16.9182 43.0093 12.1182 47.8093 12.1182 53.7593C12.1182 59.7093 16.9182 64.5093 22.8682 64.5093Z" fill="#2C2E32"/>
<path d="M12.1182 32.2593C12.1182 26.3093 16.9182 21.5093 22.8682 21.5093H33.6182V43.0093H22.8682C16.9182 43.0093 12.1182 38.2093 12.1182 32.2593Z" fill="#2C2E32"/>
<path d="M12.1182 10.7593C12.1182 4.80928 16.9182 0.00927734 22.8682 0.00927734H33.6182V21.5093H22.8682C16.9182 21.5093 12.1182 16.7093 12.1182 10.7593Z" fill="#2C2E32"/>
<path d="M33.6182 0.00927734H44.3682C50.3182 0.00927734 55.1182 4.80928 55.1182 10.7593C55.1182 16.7093 50.3182 21.5093 44.3682 21.5093H33.6182V0.00927734Z" fill="#2C2E32"/>
<path d="M55.1182 32.2593C55.1182 38.2093 50.3182 43.0093 44.3682 43.0093C38.4182 43.0093 33.6182 38.2093 33.6182 32.2593C33.6182 26.3093 38.4182 21.5093 44.3682 21.5093C50.3182 21.5093 55.1182 26.3093 55.1182 32.2593Z" fill="#2C2E32"/>
</g>
<defs>
<clipPath id="clip0_80_76">
<rect width="64" height="64" fill="white" transform="translate(0.118164 0.00927734)"/>
</clipPath>
</defs>
</svg>
