<svg width="65" height="64" viewBox="0 0 65 64" fill="none" xmlns="http://www.w3.org/2000/svg">
<g clip-path="url(#clip0_80_82)">
<path d="M62.4891 29.1982L34.9306 1.64118C33.3446 0.0541778 30.7706 0.0541778 29.1821 1.64118L23.4606 7.36418L30.7196 14.6232C32.4071 14.0537 34.3411 14.4357 35.6856 15.7802C36.3264 16.4215 36.7737 17.2302 36.9765 18.1138C37.1792 18.9974 37.1292 19.9202 36.8321 20.7767L43.8281 27.7737C45.5206 27.1902 47.4741 27.5672 48.8251 28.9212C50.7151 30.8097 50.7151 33.8712 48.8251 35.7607C48.376 36.21 47.8427 36.5665 47.2558 36.8097C46.6688 37.0529 46.0397 37.1781 45.4044 37.1781C44.7691 37.1781 44.1399 37.0529 43.553 36.8097C42.966 36.5665 42.4328 36.21 41.9836 35.7607C41.3088 35.0855 40.8488 34.2257 40.6616 33.2897C40.4743 32.3536 40.5681 31.3831 40.9311 30.5002L34.4071 23.9757L34.4061 41.1462C34.8795 41.3793 35.3116 41.688 35.6856 42.0602C37.5751 43.9487 37.5751 47.0092 35.6856 48.9017C33.7961 50.7902 30.7336 50.7902 28.8461 48.9017C26.9571 47.0097 26.8021 43.9492 28.6906 42.0602C29.1576 41.5937 29.6181 41.2412 30.1181 41.0052V23.6757C29.6181 23.4397 29.1581 23.0897 28.6901 22.6202C27.2596 21.1902 26.9921 19.0902 27.7261 17.3322L20.6096 10.1757L1.73263 29.0707C0.145134 30.6592 0.155134 33.2332 1.74263 34.8207L29.3056 62.3777C30.8921 63.9647 33.4681 63.9647 35.0571 62.3777L62.4871 34.9487C64.0746 33.3607 64.0761 30.7852 62.4891 29.1982Z" fill="#2C2E32"/>
</g>
<defs>
<clipPath id="clip0_80_82">
<rect width="64" height="64" fill="white" transform="translate(0.118164 0.00927734)"/>
</clipPath>
</defs>
</svg>
