<svg width="65" height="64" viewBox="0 0 65 64" fill="none" xmlns="http://www.w3.org/2000/svg">
<path fill-rule="evenodd" clip-rule="evenodd" d="M32.1182 2.56079C15.4447 2.56079 1.92419 16.0783 1.92419 32.7548C1.92419 46.0958 10.5757 57.4133 22.5727 61.4063C24.0812 61.6863 24.6352 60.7513 24.6352 59.9538C24.6352 59.2338 24.6072 56.8553 24.5942 54.3323C16.1942 56.1588 14.4217 50.7698 14.4217 50.7698C13.0482 47.2798 11.0692 46.3518 11.0692 46.3518C8.3292 44.4778 11.2757 44.5168 11.2757 44.5168C14.3072 44.7293 15.9042 47.6283 15.9042 47.6283C18.5972 52.2433 22.9677 50.9093 24.6907 50.1383C24.9617 48.1868 25.7442 46.8543 26.6077 46.1003C19.9012 45.3378 12.8507 42.7483 12.8507 31.1788C12.8507 27.8823 14.0307 25.1888 15.9622 23.0738C15.6482 22.3138 14.6147 19.2428 16.2542 15.0838C16.2542 15.0838 18.7892 14.2723 24.5592 18.1788C26.9682 17.5093 29.5517 17.1728 32.1182 17.1613C34.6832 17.1728 37.2682 17.5083 39.6817 18.1778C45.4447 14.2713 47.9767 15.0828 47.9767 15.0828C49.6202 19.2413 48.5867 22.3128 48.2732 23.0728C50.2092 25.1878 51.3807 27.8813 51.3807 31.1778C51.3807 42.7748 44.3172 45.3278 37.5937 46.0758C38.6772 47.0128 39.6422 48.8508 39.6422 51.6673C39.6422 55.7073 39.6072 58.9588 39.6072 59.9533C39.6072 60.7568 40.1512 61.6983 41.6812 61.4018C53.6712 57.4048 62.3127 46.0908 62.3127 32.7548C62.3122 16.0793 48.7932 2.56079 32.1182 2.56079Z" fill="#2C2E32"/>
<path d="M13.3602 45.9122C13.2937 46.0622 13.0577 46.1072 12.8427 46.0047C12.6227 45.9067 12.5002 45.7022 12.5712 45.5517C12.6362 45.3967 12.8727 45.3542 13.0912 45.4577C13.3112 45.5562 13.4362 45.7627 13.3597 45.9127L13.3602 45.9122ZM14.5832 47.2767C14.4397 47.4102 14.1582 47.3482 13.9672 47.1367C13.7692 46.9267 13.7322 46.6452 13.8787 46.5097C14.0277 46.3767 14.3007 46.4397 14.4987 46.6497C14.6957 46.8627 14.7347 47.1417 14.5837 47.2772L14.5832 47.2767ZM15.7742 49.0152C15.5892 49.1442 15.2862 49.0237 15.0992 48.7552C14.9142 48.4862 14.9142 48.1637 15.1042 48.0352C15.2907 47.9062 15.5892 48.0227 15.7792 48.2887C15.9632 48.5612 15.9632 48.8842 15.7742 49.0152ZM17.4047 50.6957C17.2397 50.8782 16.8867 50.8292 16.6287 50.5807C16.3652 50.3372 16.2917 49.9907 16.4572 49.8087C16.6252 49.6257 16.9797 49.6767 17.2392 49.9237C17.5027 50.1667 17.5822 50.5137 17.4057 50.6952L17.4047 50.6957ZM19.6547 51.6712C19.5812 51.9077 19.2422 52.0152 18.8997 51.9142C18.5582 51.8107 18.3347 51.5342 18.4047 51.2952C18.4747 51.0567 18.8162 50.9452 19.1607 51.0527C19.5022 51.1557 19.7257 51.4307 19.6547 51.6712ZM22.1262 51.8517C22.1347 52.1007 21.8447 52.3067 21.4862 52.3117C21.1247 52.3202 20.8322 52.1182 20.8287 51.8732C20.8287 51.6217 21.1127 51.4182 21.4737 51.4112C21.8322 51.4047 22.1267 51.6047 22.1267 51.8512L22.1262 51.8517ZM24.4252 51.4607C24.4682 51.7032 24.2187 51.9527 23.8622 52.0192C23.5122 52.0842 23.1872 51.9332 23.1422 51.6927C23.0992 51.4437 23.3532 51.1942 23.7032 51.1297C24.0602 51.0682 24.3802 51.2142 24.4252 51.4607Z" fill="#2C2E32"/>
</svg>
