<svg xmlns="http://www.w3.org/2000/svg" version="1.1" width="132px" height="132px" style="shape-rendering:geometricPrecision; text-rendering:geometricPrecision; image-rendering:optimizeQuality; fill-rule:evenodd; clip-rule:evenodd" xmlns:xlink="http://www.w3.org/1999/xlink">
<g><path style="opacity:0.93" fill="#2880f6" d="M 44.5,9.5 C 57.1711,9.33345 69.8377,9.50012 82.5,10C 107.42,14.33 119.754,29.1633 119.5,54.5C 119.977,77.5224 109.144,92.189 87,98.5C 86.5003,106.493 86.3336,114.493 86.5,122.5C 75.1618,122.667 63.8284,122.5 52.5,122C 25.5371,119.04 11.8704,104.04 11.5,77C 11.0577,53.6837 22.0577,39.1837 44.5,33.5C 44.5,25.5 44.5,17.5 44.5,9.5 Z M 58.5,19.5 C 69.0672,18.8264 79.4005,19.993 89.5,23C 101.782,29.7124 107.782,40.2124 107.5,54.5C 107.391,69.4067 100.724,80.0733 87.5,86.5C 86.5005,68.5123 86.1671,50.5123 86.5,32.5C 77.1667,32.5 67.8333,32.5 58.5,32.5C 58.5,35.8333 58.5,39.1667 58.5,42.5C 63.8333,42.5 69.1667,42.5 74.5,42.5C 74.5,65.5 74.5,88.5 74.5,111.5C 66.16,111.666 57.8267,111.5 49.5,111C 32.4418,106.264 23.7751,94.9311 23.5,77C 23.4134,61.6493 30.2467,50.816 44,44.5C 44.4999,62.8303 44.6666,81.1636 44.5,99.5C 53.8333,99.5 63.1667,99.5 72.5,99.5C 72.5,96.1667 72.5,92.8333 72.5,89.5C 67.1667,89.5 61.8333,89.5 56.5,89.5C 55.8594,65.9371 56.526,42.6038 58.5,19.5 Z"/></g>
</svg>