<svg width="72" height="64" viewBox="0 0 72 64" fill="none" xmlns="http://www.w3.org/2000/svg">
<g clip-path="url(#clip0_80_74)" filter="url(#filter0_d_80_74)">
<path d="M67.4531 49.2294C65.1731 49.8094 63.7631 49.2544 62.4981 47.3544C59.6581 43.0994 56.5231 39.0394 53.4981 34.9044C53.1081 34.3694 52.7031 33.8444 52.1981 33.1794C48.6181 38.0094 45.0431 42.6094 41.6881 47.3944C40.4881 49.1044 39.2281 49.8494 36.9881 49.2444L50.4481 31.1794L37.9181 14.8644C40.0731 14.4444 41.5631 14.6594 42.8831 16.5894C45.7981 20.8494 49.0131 24.9044 52.2181 29.1944C55.4431 24.9194 58.6181 20.8594 61.6181 16.6394C62.8231 14.9294 64.1181 14.2794 66.2831 14.9094C64.6431 17.0844 63.0381 19.2244 61.4231 21.3494C59.2431 24.2144 57.1031 27.1144 54.8431 29.9194C54.0381 30.9194 54.1681 31.5694 54.8881 32.5144C59.0681 38.0094 63.1981 43.5594 67.4531 49.2294ZM4.78307 30.8794C5.14307 29.0744 5.38307 27.2344 5.88307 25.4644C8.88307 14.7494 21.1831 10.2944 29.6331 16.9344C34.5831 20.8294 35.8131 26.3194 35.5681 32.5094H7.66807C7.24807 43.6144 15.2431 50.3194 25.4331 46.8994C29.0081 45.6994 31.1131 42.8994 32.1681 39.3994C32.7031 37.6444 33.5881 37.3694 35.2381 37.8694C34.3931 42.2494 32.4781 45.9094 28.4781 48.1994C22.4781 51.6294 13.9131 50.5194 9.40807 45.7544C6.74807 42.9544 5.61807 39.4694 5.11807 35.7044C5.04307 35.1044 4.88807 34.5144 4.76807 33.9194C4.77807 32.906 4.78307 31.8927 4.78307 30.8794ZM7.71807 30.1344H32.9331C32.7681 22.1044 27.7681 16.3994 20.9331 16.3494C13.4331 16.2894 8.04307 21.8594 7.71807 30.1344Z" fill="#2C2E32"/>
</g>
<defs>
<filter id="filter0_d_80_74" x="0.118164" y="0.00927734" width="72" height="72" filterUnits="userSpaceOnUse" color-interpolation-filters="sRGB">
<feFlood flood-opacity="0" result="BackgroundImageFix"/>
<feColorMatrix in="SourceAlpha" type="matrix" values="0 0 0 0 0 0 0 0 0 0 0 0 0 0 0 0 0 0 127 0" result="hardAlpha"/>
<feOffset dy="4"/>
<feGaussianBlur stdDeviation="2"/>
<feComposite in2="hardAlpha" operator="out"/>
<feColorMatrix type="matrix" values="0 0 0 0 0 0 0 0 0 0 0 0 0 0 0 0 0 0 0.25 0"/>
<feBlend mode="normal" in2="BackgroundImageFix" result="effect1_dropShadow_80_74"/>
<feBlend mode="normal" in="SourceGraphic" in2="effect1_dropShadow_80_74" result="shape"/>
</filter>
<clipPath id="clip0_80_74">
<rect width="64" height="64" fill="white" transform="translate(4.11816 0.00927734)"/>
</clipPath>
</defs>
</svg>
