<svg width="65" height="66" viewBox="0 0 65 66" fill="none" xmlns="http://www.w3.org/2000/svg">
<g filter="url(#filter0_d_80_94)">
<path d="M36.5999 6.00041C36.2351 6.00041 35.8703 6.08176 35.5461 6.20399C36.2351 6.65286 36.5999 7.26443 36.8027 7.95777C36.8027 8.03953 36.8433 8.12129 36.8433 8.20264C36.8433 8.2844 36.8839 8.36575 36.8839 8.44711C36.9245 9.63019 36.5593 9.7933 36.3164 10.4866C35.9109 11.3836 36.0328 12.3626 36.5191 13.1373C36.5597 13.2191 36.6003 13.3417 36.6812 13.4231C36.1543 9.9973 38.9911 9.50755 39.518 8.44711C39.5586 7.50931 38.7888 6.89774 38.1807 6.44887C37.5729 6.08176 37.0862 6 36.6003 6L36.5999 6.00041ZM40.8562 6.73381C40.8156 7.06003 40.8562 6.97868 40.8156 7.14179C40.8156 7.26403 40.8156 7.38626 40.775 7.5089C40.7343 7.63113 40.7343 7.71289 40.6937 7.83513C40.6531 7.95777 40.6129 8.03912 40.5722 8.16135C40.5316 8.24311 40.491 8.32447 40.4504 8.4467C40.4102 8.48758 40.3695 8.56934 40.3293 8.61022C40.2887 8.6511 40.2887 8.69157 40.2481 8.73245C40.1668 8.81421 40.1262 8.93604 40.0453 9.0178L39.8024 9.26267C39.7212 9.34443 39.6399 9.42579 39.5591 9.46626C39.2755 9.67066 38.9513 9.83336 38.6673 10.0374C38.5861 10.1191 38.4646 10.16 38.3838 10.2414C38.3025 10.3231 38.2213 10.364 38.1404 10.4453L37.8975 10.6898C37.8162 10.7716 37.735 10.8533 37.6944 10.9756C37.6135 11.0573 37.5729 11.1796 37.4921 11.2609C37.4514 11.3836 37.4108 11.4649 37.33 11.5871C37.2893 11.7098 37.2487 11.7915 37.2081 11.9134C37.1675 12.036 37.1272 12.1582 37.1272 12.2396C37.1272 12.2805 37.1272 12.3622 37.0866 12.4031C37.0866 12.444 37.0866 12.5253 37.046 12.5662V13.1369C37.046 13.2596 37.046 13.3413 37.0866 13.4631C37.0866 13.5858 37.1272 13.6675 37.1679 13.7898C37.2085 13.912 37.2491 13.9934 37.2897 14.116C37.33 14.1978 37.3706 14.2382 37.3706 14.32L34.29 13.1369C33.7819 12.9821 33.2683 12.8461 32.7503 12.7293C32.4663 12.6476 32.1828 12.6067 31.8988 12.5249C31.0946 12.3629 30.2831 12.2405 29.467 12.1582H29.3858C28.5753 12.0765 27.8054 12.0356 26.995 12.0356C26.3868 12.0356 25.8193 12.0765 25.2522 12.1174C24.4413 12.1582 23.6312 12.2809 22.8204 12.4031L22.2122 12.5253C21.8072 12.6071 21.4017 12.6885 20.9963 12.8107C20.7936 12.8516 20.5913 12.9333 20.3885 12.9742C20.1858 13.0556 19.9831 13.1369 19.821 13.2187C19.6589 13.3004 19.5375 13.3413 19.3754 13.4227C19.3347 13.4227 19.3347 13.4227 19.2941 13.4636C19.1722 13.5449 19.0512 13.5858 18.9293 13.6671C18.8887 13.6671 18.848 13.708 18.848 13.708C18.6864 13.7898 18.5645 13.8715 18.443 13.912C18.3618 13.9529 18.2403 13.9938 18.1595 14.0347C18.1188 14.0751 18.0782 14.0751 18.0376 14.116C17.9161 14.1978 17.7946 14.2382 17.6728 14.3196C17.5513 14.4014 17.4298 14.4422 17.3486 14.524C17.2673 14.6053 17.1459 14.6462 17.065 14.7276C17.065 14.7276 17.0244 14.7276 17.0244 14.7685C16.9431 14.8093 16.8623 14.8911 16.7815 14.9725L16.7408 15.0133C16.6596 15.0542 16.619 15.1356 16.5381 15.1764C16.4975 15.1764 16.4975 15.2173 16.4569 15.2173C16.376 15.2582 16.3354 15.3396 16.2546 15.38C16.2546 15.4209 16.2139 15.4209 16.2139 15.4209L15.9706 15.6658L15.93 15.7067L15.687 15.9511C15.687 15.9511 15.687 15.992 15.6464 15.992L15.4437 16.196C15.4031 16.2369 15.3624 16.2369 15.3624 16.2778L15.1195 16.5222C15.1195 16.5631 15.0789 16.5631 15.0789 16.604L14.7547 16.9298L14.7141 16.9707C14.5117 17.2156 14.2684 17.4196 14.0255 17.6236C13.7821 17.8271 13.5388 18.0311 13.2552 18.2351C12.9716 18.4391 12.7283 18.6022 12.4447 18.7653C12.1608 18.9285 11.8772 19.0507 11.5937 19.1733C11.3097 19.2956 11.0261 19.4178 10.7426 19.4996C10.175 19.6222 9.6075 19.8667 9.12122 19.9071C9.12122 19.7036 8.99934 19.744 8.87787 19.744C8.7564 19.7849 8.63493 19.7849 8.55368 19.8258C8.43181 19.8667 8.35097 19.9075 8.2295 19.9484C8.11389 19.9859 8.00459 20.0407 7.90531 20.1111C7.82406 20.1929 7.70259 20.2338 7.62175 20.3155C7.5405 20.3969 7.41862 20.4782 7.33778 20.56C7.25653 20.6418 7.13506 20.7231 7.05422 20.8045C6.97297 20.8862 6.89172 20.968 6.81087 21.0902C6.72962 21.2125 6.64878 21.2938 6.60816 21.4164C6.52731 21.4982 6.48669 21.6204 6.40584 21.7427C6.36522 21.8653 6.28397 21.9871 6.24334 22.1098L6.12187 22.4769C6.08125 22.5991 6.08125 22.6805 6.04062 22.8031V22.844C6 22.9666 6 23.1293 6 23.2111C6.04062 23.1702 6.04062 23.252 6.04062 23.3333V23.4964C6.04062 23.5782 6.08125 23.6596 6.08125 23.7409C6.12187 23.8227 6.12187 23.9044 6.1625 23.9858C6.20272 24.0675 6.24334 24.1489 6.32419 24.2307C6.36481 24.3124 6.44606 24.3938 6.48669 24.4751C6.56753 24.5569 6.64837 24.6386 6.72962 24.6791C6.81087 24.7609 6.89172 24.8426 6.97256 24.8831C7.29675 25.1685 7.378 25.2502 7.78344 25.4947C7.86469 25.5356 7.9049 25.5764 7.98615 25.6173H8.02678V25.6991C8.02678 25.8209 8.0674 25.9027 8.10762 26.0249C8.14825 26.1475 8.18887 26.2698 8.2295 26.3511L8.35056 26.596C8.35056 26.6369 8.39118 26.6369 8.39118 26.6778C8.43181 26.8 8.51306 26.8814 8.55368 26.9631C8.63453 27.0449 8.67515 27.1671 8.756 27.2485L8.99934 27.4933L9.24228 27.7378H9.2829C9.36415 27.8196 9.445 27.8604 9.52625 27.9422C9.6075 28.024 9.72896 28.0644 9.80981 28.1049C9.89106 28.1458 10.0125 28.2275 10.134 28.2684C10.2152 28.3093 10.2965 28.3498 10.4176 28.3498C10.4176 28.3498 10.4582 28.3498 10.4582 28.3907C10.4988 28.3907 10.5801 28.4315 10.6207 28.4315C10.5801 29.1653 10.5801 29.8587 10.6613 30.1036C10.7824 30.3889 11.3905 29.5325 11.9581 28.5947C11.8768 29.5325 11.8362 30.6338 11.9581 30.96C12.1201 31.2862 12.89 30.2258 13.6196 29.0836C23.1035 26.8814 31.7769 33.4885 32.7093 42.8284C32.5468 41.36 30.7633 40.5444 29.9127 40.7484C29.5072 41.7271 28.8182 43.0324 27.7242 43.8071C27.805 42.9098 27.7648 42.0125 27.6023 41.1155C27.3188 42.3391 26.7512 43.5218 25.9408 44.5004C24.6842 44.5822 23.3875 43.9702 22.7387 43.0324C22.6981 42.9915 22.6575 42.9098 22.6172 42.8689C22.5766 42.7875 22.536 42.6653 22.4954 42.5836C22.4547 42.5018 22.4145 42.3796 22.4145 42.2982V41.8089C22.4145 41.7271 22.4551 41.6045 22.4958 41.5231C22.5364 41.4418 22.5364 41.3191 22.577 41.2378C22.6172 41.156 22.6579 41.0338 22.7387 40.9524C22.982 40.2996 22.982 39.7693 22.536 39.484L22.293 39.3614C22.2524 39.3614 22.1712 39.3209 22.1305 39.3209C22.0899 39.3209 22.0497 39.28 22.0091 39.28C21.9282 39.2391 21.8068 39.2391 21.7255 39.1982C21.6443 39.1574 21.5228 39.1574 21.442 39.1574C21.3607 39.1574 21.2388 39.1169 21.158 39.1169H20.9557C20.8338 39.1169 20.7525 39.1169 20.6717 39.1578C20.5905 39.1578 20.469 39.1986 20.3881 39.1986C20.3069 39.2395 20.1854 39.2395 20.1042 39.2804C20.0233 39.3209 19.9421 39.3618 19.8206 39.4022L19.5773 39.5249C16.4565 41.564 18.3211 46.3764 20.4288 47.7631C19.6179 47.9266 18.8074 48.0893 18.5641 48.2529L18.5235 48.2937C19.091 48.6604 19.6991 48.9462 20.3475 49.1907C21.1986 49.4764 22.131 49.7209 22.536 49.8435C23.6304 50.088 24.7655 50.1697 25.9001 50.088C31.8176 49.68 36.6812 45.1124 37.5725 39.1578C37.6131 39.2804 37.6131 39.4022 37.6537 39.5249C37.6944 39.7693 37.735 40.0142 37.7756 40.2996C37.8162 40.4222 37.8162 40.5444 37.8162 40.6667V40.7075C37.8162 40.8302 37.8565 40.9524 37.8565 41.0747C37.8565 41.2378 37.8971 41.36 37.8971 41.5231V43.236C37.8971 43.3586 37.8565 43.4404 37.8565 43.5626V43.6849C37.8565 43.8075 37.8158 43.9297 37.8158 44.0929C37.7752 44.2151 37.7752 44.3373 37.7346 44.46V44.5009C37.694 44.6231 37.694 44.7453 37.6537 44.8675V44.9084C37.6131 45.0311 37.6131 45.1533 37.5725 45.2755V45.3164L37.451 45.6835V45.7244C37.4104 45.8466 37.3698 46.0097 37.3296 46.132C37.2889 46.2546 37.2483 46.3769 37.1671 46.54C37.1268 46.6622 37.0862 46.8253 37.0054 46.9475C36.9647 47.0702 36.8835 47.1924 36.8429 47.3555C36.8027 47.4782 36.7214 47.6004 36.6812 47.7226C36.6812 47.7635 36.6406 47.8044 36.6406 47.8044C36.6406 47.8044 36.6406 47.8453 36.5999 47.8453C35.7488 49.5986 34.4521 51.1484 32.8308 52.372C32.7089 52.4537 32.628 52.5355 32.5066 52.6169C32.4659 52.6577 32.4253 52.6577 32.4253 52.6986C32.3441 52.78 32.2226 52.8208 32.1418 52.9022L32.1824 52.984C32.3847 52.9431 32.5472 52.9431 32.7495 52.9022C33.1143 52.8613 33.4385 52.7796 33.8033 52.6982C33.8846 52.6982 34.0064 52.6573 34.0873 52.6164C34.1685 52.6164 34.2088 52.5756 34.2896 52.5756C34.3704 52.5756 34.4927 52.5351 34.5736 52.5351C34.6548 52.4942 34.7357 52.4942 34.8165 52.4533C36.1543 52.1275 37.451 51.6786 38.7076 51.1484C36.5593 54.0849 33.7225 56.4506 30.3989 58C31.939 57.8778 33.4791 57.6333 34.9786 57.1844C40.3632 55.5934 44.907 51.9297 47.6239 46.9884C47.0568 50.088 45.8405 53.0653 44.0168 55.6755C45.314 54.8191 46.4893 53.7991 47.5837 52.6982C50.5826 49.5578 52.5684 45.52 53.2172 41.2378C53.6632 43.3586 53.8253 45.5609 53.6226 47.7226C63.3092 34.1413 54.4331 20.0707 50.7045 16.3591C50.7045 16.3182 50.6639 16.3182 50.6639 16.2774C50.6639 16.4409 50.6639 16.6036 50.6233 16.7671C50.5826 17.0933 50.542 17.3787 50.5014 17.664C50.4205 17.9498 50.3397 18.276 50.2585 18.5614C50.1772 18.8471 50.0557 19.1325 49.9343 19.4178C49.8124 19.7036 49.6909 19.9889 49.5288 20.2338C49.3667 20.4786 49.2046 20.764 49.0425 21.0085C48.8805 21.2533 48.6777 21.4978 48.475 21.7427C48.2727 21.9875 48.07 22.1911 47.8266 22.436C47.7048 22.5586 47.5837 22.6809 47.4216 22.7622C47.2997 22.844 47.2185 22.9258 47.097 23.0476C46.8541 23.252 46.6107 23.4147 46.3272 23.5778C46.0838 23.7413 45.8003 23.9044 45.5167 24.0267L44.6652 24.3938C44.3816 24.516 44.0981 24.5978 43.8141 24.6791C43.5306 24.7609 43.2064 24.8426 42.9224 24.8831C42.5982 24.924 42.3146 24.9649 42.0311 25.0058C41.828 25.0058 41.585 25.0462 41.3823 25.0462C41.0581 25.0462 40.7746 25.0053 40.491 25.0053C40.1664 24.9645 39.8828 24.9236 39.5993 24.8827C39.2918 24.8451 38.9915 24.7627 38.7076 24.6382C38.9911 24.5974 39.3153 24.5974 39.5993 24.516C39.9235 24.4751 40.207 24.3934 40.491 24.312C40.7746 24.2303 41.0987 24.1489 41.3421 24.0267L42.1932 23.6596C42.4767 23.5369 42.7201 23.3742 43.0036 23.2111C43.247 23.0476 43.5306 22.844 43.7739 22.6809C44.0168 22.4765 44.2602 22.2729 44.4629 22.0689C44.7058 21.8649 44.9086 21.6204 45.1113 21.4164C45.314 21.1716 45.5167 20.9271 45.6788 20.6822C45.7194 20.6414 45.7194 20.6005 45.7601 20.5596C45.8811 20.356 46.0432 20.1111 46.1651 19.9075C46.3162 19.644 46.4515 19.3715 46.5701 19.0916C46.692 18.8062 46.8139 18.5205 46.8947 18.2351L47.1376 17.3787C47.1783 17.0525 47.2595 16.7671 47.2595 16.4814C47.3001 16.1551 47.3001 15.8698 47.3001 15.584C47.3001 15.3804 47.3001 15.1356 47.2595 14.9316C47.2189 14.6053 47.1783 14.32 47.1376 14.0342C47.097 13.708 47.0158 13.4227 46.9349 13.1369C46.8537 12.8516 46.7322 12.5662 46.6514 12.2805C46.5295 11.9951 46.408 11.7098 46.2865 11.4649C46.1245 11.1796 46.003 10.9347 45.8409 10.6493C45.6784 10.4045 45.4761 10.1596 45.314 9.91513C45.1113 9.67025 44.9086 9.46626 44.7058 9.22179C44.5844 9.09915 44.4629 8.97692 44.341 8.89557C43.7333 8.40623 43.1251 7.99824 42.4767 7.59025C42.3955 7.54937 42.3146 7.50849 42.1932 7.46761C41.6663 7.01956 41.2612 6.89692 40.8562 6.73381Z" fill="#2C2E32"/>
</g>
<defs>
<filter id="filter0_d_80_94" x="-3.88184" y="0.00927734" width="72" height="72" filterUnits="userSpaceOnUse" color-interpolation-filters="sRGB">
<feFlood flood-opacity="0" result="BackgroundImageFix"/>
<feColorMatrix in="SourceAlpha" type="matrix" values="0 0 0 0 0 0 0 0 0 0 0 0 0 0 0 0 0 0 127 0" result="hardAlpha"/>
<feOffset dy="4"/>
<feGaussianBlur stdDeviation="2"/>
<feComposite in2="hardAlpha" operator="out"/>
<feColorMatrix type="matrix" values="0 0 0 0 0 0 0 0 0 0 0 0 0 0 0 0 0 0 0.25 0"/>
<feBlend mode="normal" in2="BackgroundImageFix" result="effect1_dropShadow_80_94"/>
<feBlend mode="normal" in="SourceGraphic" in2="effect1_dropShadow_80_94" result="shape"/>
</filter>
</defs>
</svg>
