<svg width="65" height="64" viewBox="0 0 65 64" fill="none" xmlns="http://www.w3.org/2000/svg">
<g filter="url(#filter0_d_80_101)">
<path d="M32.9421 7.00525C32.4999 6.9761 32.0583 7.0688 31.6653 7.27322C31.2724 7.47763 30.9432 7.78591 30.7138 8.1644L12.361 38.0513C12.1218 38.4406 11.9968 38.889 12.0001 39.3456C12.0033 39.8022 12.1347 40.2488 12.3794 40.6346L21.4151 54.8698C21.7017 55.3185 22.127 55.6615 22.6266 55.8469C23.1262 56.0322 23.6727 56.0498 24.1832 55.8969L50.2582 48.0848C50.5931 47.9847 50.9026 47.814 51.1657 47.5842C51.4288 47.3544 51.6395 47.0709 51.7834 46.7528C51.9273 46.4347 52.0012 46.0894 52 45.7404C51.9988 45.3913 51.9225 45.0466 51.7764 44.7295L35.0147 8.41974C34.8324 8.01705 34.5427 7.67214 34.1774 7.42268C33.8121 7.17322 33.3852 7.02882 32.9432 7.00525H32.9421ZM33.6302 16.1736C33.8252 16.1503 34.0224 16.1913 34.1918 16.2904C34.3613 16.3894 34.4937 16.5411 34.5688 16.7222L46.1318 43.4364C46.1833 43.5551 46.209 43.6834 46.2072 43.8127C46.2054 43.9421 46.1762 44.0696 46.1214 44.1869C46.0666 44.3041 45.9875 44.4084 45.8894 44.4929C45.7913 44.5774 45.6763 44.6402 45.5521 44.6771L27.5344 50.0456C27.383 50.0905 27.2225 50.0956 27.0686 50.0603C26.9146 50.025 26.7724 49.9506 26.6558 49.8443C26.5391 49.738 26.452 49.6034 26.4028 49.4535C26.3536 49.3037 26.344 49.1437 26.375 48.9891L32.8274 16.9048C32.8636 16.7121 32.9617 16.5364 33.107 16.4044C33.2522 16.2725 33.4366 16.1914 33.6322 16.1736H33.6302Z" fill="#2C2E32"/>
</g>
<defs>
<filter id="filter0_d_80_101" x="-3.88184" y="0.00927734" width="72" height="72" filterUnits="userSpaceOnUse" color-interpolation-filters="sRGB">
<feFlood flood-opacity="0" result="BackgroundImageFix"/>
<feColorMatrix in="SourceAlpha" type="matrix" values="0 0 0 0 0 0 0 0 0 0 0 0 0 0 0 0 0 0 127 0" result="hardAlpha"/>
<feOffset dy="4"/>
<feGaussianBlur stdDeviation="2"/>
<feComposite in2="hardAlpha" operator="out"/>
<feColorMatrix type="matrix" values="0 0 0 0 0 0 0 0 0 0 0 0 0 0 0 0 0 0 0.25 0"/>
<feBlend mode="normal" in2="BackgroundImageFix" result="effect1_dropShadow_80_101"/>
<feBlend mode="normal" in="SourceGraphic" in2="effect1_dropShadow_80_101" result="shape"/>
</filter>
</defs>
</svg>
