<svg width="65" height="64" viewBox="0 0 65 64" fill="none" xmlns="http://www.w3.org/2000/svg">
<path fill-rule="evenodd" clip-rule="evenodd" d="M45.3636 28.6504C45.1786 26.2554 44.6156 23.9459 43.8326 21.6834C42.2106 16.6314 39.6076 12.1604 35.9411 8.31336C35.0141 7.34036 33.9831 6.44886 33.3366 5.23787C32.9276 4.47187 32.5381 3.69537 32.1396 2.92337L31.8871 2.28687C31.8446 2.43287 31.8176 2.48487 31.8161 2.53737C31.7836 3.79587 31.0706 4.64937 30.1826 5.44587C29.1841 6.34237 28.2546 7.31536 27.2951 8.25486L24.3446 12.1364C23.5486 13.5989 22.7536 15.0614 21.9586 16.5239L20.3636 20.8324L20.3156 20.8994C19.4376 23.7834 19.0046 26.7484 18.7916 29.7434C18.7116 30.8689 18.8026 32.0109 18.8661 33.1424C18.9566 34.7599 19.2376 36.3499 19.6591 37.9149C21.1901 43.6009 24.2971 48.3174 28.5446 52.3244C29.3341 53.0689 30.1441 53.7459 30.9681 54.4544C31.1091 53.9719 31.2216 53.4894 31.3496 53.0069C31.4776 52.5264 31.6071 52.0484 31.6936 51.5664C31.6066 52.0484 31.5091 52.5264 31.4126 53.0069L30.9996 54.4544L31.3686 55.7049L31.7106 57.6469L31.8736 59.6734C31.8721 60.0849 31.8556 60.4974 31.8806 60.9084C31.8866 61.0134 32.0246 61.1104 32.1016 61.2114L32.7896 61.4529L33.5066 61.7319L33.3836 59.9304L33.3781 58.1564L33.6256 55.4539L33.8051 54.8654L34.3186 53.9554C34.9526 53.4454 35.6331 52.9824 36.2106 52.4149C37.2556 51.3879 38.2981 50.3479 39.2331 49.2234C40.4501 47.7658 41.4892 46.1686 42.3286 44.4654C42.8896 43.3234 43.4176 42.1584 43.8546 40.9649C44.2396 39.9129 44.4781 38.8074 44.7816 37.7254C44.8086 37.6474 44.8446 37.5709 44.8616 37.4914C45.4886 34.5709 45.5941 31.6209 45.3636 28.6504Z" fill="#2C2E32"/>
</svg>
