<svg width="65" height="64" viewBox="0 0 65 64" fill="none" xmlns="http://www.w3.org/2000/svg">
<g clip-path="url(#clip0_80_55)">
<path d="M58.9621 49.1302C55.4756 49.0347 52.8136 49.3607 50.5361 50.3197C49.8896 50.5932 48.8586 50.5992 48.7531 51.4097C49.1086 51.7827 49.1631 52.3392 49.4466 52.7982C49.9896 53.6752 50.9076 54.8547 51.7261 55.4742C52.6206 56.1482 53.5426 56.8707 54.5016 57.4547C56.2086 58.4957 58.1131 59.0897 59.7536 60.1307C60.7226 60.7457 61.6831 61.5192 62.6286 62.2127C63.0956 62.5547 63.4101 63.0877 64.0151 63.3027V63.2052C63.6966 62.7992 63.6146 62.2402 63.3216 61.8167L62.0326 60.5277C60.7726 58.8557 59.1731 57.3872 57.4741 56.1682C56.1186 55.1937 53.0836 53.8792 52.5191 52.3032L52.4196 52.2037C53.3806 52.0942 54.5056 51.7467 55.3941 51.5082C56.8841 51.1097 58.2166 51.2132 59.7536 50.8147L61.8356 50.2212V49.8247C61.0581 49.0277 60.5036 47.9712 59.6561 47.2487C57.4356 45.3582 55.0136 43.4712 52.5196 41.8972C51.1366 41.0242 49.4276 40.4557 47.9611 39.7157C47.4671 39.4677 46.6016 39.3367 46.2756 38.9227C45.5061 37.9422 45.0861 36.6982 44.4926 35.5537C43.2486 33.1572 42.0276 30.5422 40.9241 28.0207C40.1721 26.3022 39.6821 24.6067 38.7446 23.0657C34.2446 15.6672 29.4011 11.2007 21.8971 6.8117C20.2996 5.8782 18.3776 5.5092 16.3461 5.0267L13.0746 4.8292C12.4086 4.5517 11.7171 3.7372 11.0921 3.3407C8.60663 1.7692 2.22963 -1.6468 0.387632 2.8452C-0.774368 5.6792 2.12613 8.4447 3.16313 9.8822C3.89163 10.8882 4.82313 12.0187 5.34263 13.1517C5.68663 13.8977 5.74513 14.6437 6.03813 15.4312C6.75713 17.3727 7.38563 19.4857 8.31763 21.2787C8.78813 22.1867 9.30763 23.1422 9.90363 23.9547C10.2671 24.4527 10.8936 24.6737 10.9936 25.4412C10.3801 26.2987 10.3451 27.6287 10.0016 28.7127C8.45263 33.5977 9.03863 39.6677 11.2906 43.2812C11.9821 44.3927 13.6111 46.7712 15.8491 45.8592C17.8081 45.0602 17.3706 42.5897 17.9311 40.4082C18.0581 39.9142 17.9801 39.5507 18.2281 39.2187V39.3182L20.0131 42.8847C21.3336 45.0117 23.6751 47.2342 25.6616 48.7342C26.6911 49.5117 27.5016 50.8552 28.8336 51.3102V51.2107H28.7341C28.4761 50.8082 28.0721 50.6422 27.7441 50.3202C26.9686 49.5587 26.1056 48.6132 25.4646 47.7422C23.6581 45.2912 22.0621 42.6072 20.6091 39.8147C19.9136 38.4807 19.3101 37.0102 18.7241 35.6527C18.4976 35.1292 18.5016 34.3362 18.0306 34.0667C17.3901 35.0607 16.4446 35.8657 15.9486 37.0392C15.1576 38.9162 15.0541 41.2072 14.7611 43.5802C14.5871 43.6427 14.6636 43.5997 14.5621 43.6797C13.1811 43.3457 12.6971 41.9257 12.1831 40.7052C10.8861 37.6232 10.6441 32.6602 11.7866 29.1097C12.0816 28.1917 13.4176 25.3012 12.8766 24.4517C12.6186 23.6062 11.7671 23.1157 11.2906 22.4692C10.7006 21.6702 10.1131 20.6177 9.70463 19.6937C8.64213 17.2912 8.14813 14.5922 7.02863 12.1627C6.49363 11.0007 5.59113 9.8247 4.84913 8.7937C4.02663 7.6492 3.10713 6.8052 2.47013 5.4227C2.24363 4.9307 1.93713 4.1432 2.27113 3.6397C2.37863 3.2977 2.52913 3.1552 2.86663 3.0442C3.44063 2.6007 5.04263 3.1927 5.64013 3.4407C7.23013 4.1007 8.55613 4.7297 9.90363 5.6222C10.5481 6.0497 11.2026 6.8782 11.9836 7.1087H12.8761C14.2706 7.4292 15.8331 7.2062 17.1376 7.6027C19.4421 8.3037 21.5066 9.3937 23.3816 10.5772C29.0926 14.1847 33.7646 19.3172 36.9596 25.4442C37.4731 26.4307 37.6961 27.3702 38.1491 28.4167C39.0611 30.5262 40.2116 32.6962 41.1196 34.7607C42.0276 36.8172 42.9106 38.8957 44.1936 40.6082C44.8676 41.5087 47.4691 41.9912 48.6526 42.4912C49.4826 42.8407 50.8421 43.2062 51.6271 43.6807C53.1271 44.5852 54.5801 45.6632 55.9886 46.6532C56.6896 47.1492 58.8536 48.2372 58.9611 49.1317L58.9621 49.1302ZM14.6596 11.3702C13.9331 11.3567 13.4196 11.4482 12.8766 11.5677V11.6672H12.9741C13.3216 12.3782 13.9331 12.8372 14.3626 13.4502L15.3526 15.5322L15.4521 15.4347C16.0656 15.0012 16.3466 14.3097 16.3426 13.2532C16.0966 12.9932 16.0616 12.6712 15.8466 12.3607C15.5656 11.9487 15.0166 11.7162 14.6591 11.3707L14.6596 11.3702Z" fill="#2C2E32"/>
</g>
<defs>
<clipPath id="clip0_80_55">
<rect width="64" height="64" fill="white" transform="translate(0.118164 0.00927734)"/>
</clipPath>
</defs>
</svg>
