<svg width="65" height="64" viewBox="0 0 65 64" fill="none" xmlns="http://www.w3.org/2000/svg">
<path fill-rule="evenodd" clip-rule="evenodd" d="M61.7472 38.4013C61.5222 36.9423 60.2967 35.9868 58.8712 35.9223C58.3552 35.8988 57.8312 35.9528 57.3167 36.0183C56.6952 36.0973 56.0812 36.2373 55.4612 36.3298C55.0327 36.3938 54.5982 36.4233 54.1702 36.4673L54.1597 36.4118C54.9587 34.9028 55.7912 33.4103 56.5472 31.8798C57.1267 30.7058 57.6227 29.4893 58.1352 28.2828C58.9832 26.2838 59.6607 24.2228 60.2217 22.1283C60.7592 20.1228 61.2192 18.0953 61.3637 16.0148C61.4217 15.1838 61.4617 14.3493 61.4572 13.5173C61.4532 12.8538 61.3817 12.1893 61.3152 11.5278C61.2402 10.7698 61.0112 10.0513 60.6942 9.35978C60.2762 8.44878 59.6282 7.70128 58.9462 6.99128C58.4002 6.42278 57.7997 5.90478 57.2042 5.38728C56.3552 4.64878 55.4007 4.05928 54.4092 3.53578C53.286 2.93894 52.096 2.47739 50.8642 2.16078C50.1177 1.97028 49.3542 1.82878 48.5982 1.67778C48.3262 1.62278 48.0537 1.50928 47.7817 1.50928H42.6612C42.4762 1.50928 42.2927 1.60478 42.1062 1.62578C40.8802 1.76228 39.6687 1.99328 38.4922 2.35778C38.0522 2.49428 37.6502 2.40828 37.2322 2.36978C36.9117 2.34028 36.5967 2.25428 36.2762 2.23828C35.0552 2.17728 33.8327 2.08778 32.6122 2.10078C31.4427 2.11278 30.2852 2.30528 29.1532 2.62678C28.2057 2.89578 27.2787 3.22428 26.4297 3.72228C26.0662 3.93528 25.7782 3.89528 25.4022 3.78678C24.1387 3.42228 22.8662 3.07978 21.5827 2.79228C20.7827 2.61328 19.9602 2.52428 19.1432 2.43878C18.3592 2.3573 17.5722 2.30826 16.7842 2.29178C16.0152 2.27528 15.2407 2.27578 14.4752 2.34378C13.2559 2.44978 12.054 2.70381 10.8962 3.10028C9.6138 3.53814 8.41559 4.19169 7.35316 5.03278C6.26966 5.89028 5.40066 6.93728 4.70166 8.13278C3.96516 9.39428 3.46016 10.7448 3.14616 12.1633C2.97616 12.9318 2.86866 13.7218 2.75216 14.5023C2.71566 14.7453 3.11816 14.9883 2.61816 15.2303V18.6273C3.11816 18.8533 2.72216 19.0788 2.75116 19.3053C2.82066 19.8498 2.88216 20.3988 2.97416 20.9393C3.11966 21.7948 3.29216 22.6478 3.46816 23.4978C3.71255 24.6858 3.97023 25.871 4.24116 27.0533C4.43916 27.9133 4.66466 28.7683 4.90066 29.6188C5.26116 30.9178 5.61616 32.2193 6.02366 33.5038C6.40216 34.6973 6.83566 35.8738 7.26566 37.0503C7.86116 38.6778 8.57416 40.2528 9.42916 41.7623C10.1687 43.0693 11.0137 44.2933 12.1472 45.3003C12.8942 45.9638 13.7257 46.4738 14.6937 46.7288C15.4542 46.9288 16.2272 46.9528 17.0057 46.7933C17.8926 46.6129 18.7212 46.2159 19.4177 45.6378C19.4992 45.5708 19.5887 45.5198 19.6852 45.6428C20.0527 46.1083 20.5447 46.4188 21.0592 46.6873C22.4477 47.4113 23.9607 47.6283 25.4977 47.7168C25.8697 47.7383 26.2457 47.6848 26.6207 47.6743C27.3512 47.6543 28.0612 47.5118 28.7597 47.3098C29.1257 47.2038 29.4832 47.0693 29.8557 46.9438C29.8752 47.3403 29.9002 47.7223 29.9117 48.1043L29.9637 50.1873C29.9732 50.5043 29.9857 50.8223 30.0152 51.1378C30.0907 51.9513 30.1647 52.7653 30.2617 53.5763C30.3292 54.1353 30.3992 54.6988 30.5307 55.2443C30.7943 56.3455 31.1554 57.4211 31.6097 58.4583C32.0446 59.465 32.713 60.3537 33.5597 61.0508C34.6697 61.9688 35.9707 62.3603 37.3757 62.4328C37.9567 62.4633 38.5542 62.4348 39.1262 62.3308C40.0353 62.1692 40.9346 61.9564 41.8197 61.6933C43.6152 61.1513 45.1672 60.2153 46.3267 58.7028C46.9867 57.8408 47.5287 56.9083 47.8767 55.8788C48.1637 55.0283 48.4342 54.1693 48.6492 53.2988C48.8192 52.6128 48.9032 51.9053 49.0067 51.2048C49.0752 50.7413 49.1162 50.2733 49.1592 49.8063C49.2292 49.0478 49.3007 48.2898 49.3512 47.5298C49.3862 47.0008 49.3847 46.4693 49.4057 45.9393C49.4122 45.7778 49.4382 45.6173 49.4532 45.4563C49.4672 45.3073 49.5422 45.2558 49.6942 45.2583C50.2297 45.2663 50.7662 45.2803 51.3002 45.2563C51.8987 45.2293 52.5027 45.2038 53.0917 45.1048C53.9309 44.9646 54.7634 44.7866 55.5867 44.5713C56.5582 44.3173 57.4492 43.8623 58.3067 43.3438C59.3057 42.7403 60.2162 42.0323 60.9552 41.1203C61.5977 40.3248 61.9022 39.4053 61.7472 38.4013ZM60.0412 38.8923C60.0082 39.3498 59.7987 39.7418 59.4947 40.0768C58.0602 41.6583 56.2607 42.6178 54.2022 43.0903C53.4202 43.2693 52.6132 43.3623 51.8127 43.4363C51.1287 43.4964 50.4417 43.5126 49.7557 43.4848C49.2527 43.4658 48.7537 43.3508 48.2397 43.2768C48.1882 43.7468 48.1392 44.2363 48.0797 44.7248L47.8402 46.5973C47.7677 47.1908 47.7112 47.7863 47.6367 48.3793C47.5637 48.9548 47.4727 49.5283 47.3962 50.1038C47.3247 50.6398 47.2722 51.1783 47.1927 51.7133C47.0702 52.5333 46.9532 53.3553 46.7932 54.1688C46.6012 55.1413 46.3067 56.0833 45.8262 56.9603C45.2402 58.0308 44.4092 58.8463 43.3517 59.4503C42.2617 60.0733 41.0702 60.3973 39.8622 60.6683C39.0072 60.8603 38.1262 60.8918 37.2602 60.8138C35.7582 60.6778 34.4762 60.0353 33.5072 58.8708C32.5822 57.7593 31.9562 56.4853 31.7322 55.0433C31.6276 54.3568 31.5457 53.6671 31.4867 52.9753C31.4203 52.2064 31.3705 51.4363 31.3372 50.6653C31.2928 49.6872 31.26 48.7086 31.2387 47.7298C31.2122 46.5268 31.2037 45.3238 31.1867 44.1208L31.1837 44.0748C30.5717 44.4418 29.9702 44.8438 29.3322 45.1748C28.5866 45.5605 27.7704 45.7906 26.9332 45.8513C26.2742 45.9013 25.6067 45.9468 24.9507 45.8943C23.8752 45.8078 22.8007 45.6393 21.8377 45.1098C21.4472 44.8948 21.0397 44.6333 20.7707 44.2898C20.1257 43.4668 20.4347 42.4268 21.4072 41.9263C22.0792 41.5798 22.8127 41.4353 23.5412 41.2668C24.1752 41.1229 24.8027 40.9513 25.4217 40.7523C26.0327 40.5523 26.4182 40.0568 26.7987 39.5708L27.4017 38.7953C27.1502 38.7688 26.9132 38.7418 26.6762 38.7198C25.9567 38.6518 25.2702 38.4538 24.6137 38.1628C24.0517 37.9143 24.0432 37.8873 23.6312 38.3343C22.9432 39.0813 22.2742 39.8458 21.6002 40.6053C21.1042 41.1638 20.6112 41.7258 20.1177 42.2858C19.6287 42.8398 19.1707 43.4253 18.6442 43.9408C17.8622 44.7063 16.9197 45.1668 15.7952 45.1148C15.0737 45.0818 14.4132 44.8288 13.8192 44.4153C12.5932 43.5613 11.7672 42.3668 11.0152 41.1123C10.0517 39.5048 9.31216 37.7923 8.67916 36.0328C8.24116 34.8168 7.80116 33.5998 7.41866 32.3663C7.00316 31.0258 6.63866 29.6683 6.28016 28.3113C6.01238 27.286 5.76533 26.2555 5.53916 25.2203C5.27545 24.0446 5.03141 22.8646 4.80716 21.6808C4.65816 20.8813 4.57166 20.0703 4.45116 19.2653C4.28866 18.1803 4.25866 17.0853 4.31766 15.9958C4.37016 15.0143 4.51116 14.0353 4.65116 13.0603C4.84516 11.7113 5.28966 10.4383 5.92916 9.23628C6.32066 8.49978 6.80666 7.83028 7.36866 7.20828C8.29116 6.18728 9.40766 5.44928 10.6497 4.89528C11.5177 4.50828 12.4347 4.27528 13.3692 4.09328C14.7562 3.82328 16.1557 3.83378 17.5557 3.86278C18.1677 3.87528 18.7772 3.98678 19.3887 4.04728C20.7052 4.17828 21.9957 4.45528 23.2697 4.79728C24.1982 5.04628 25.1077 5.36878 26.0287 5.64878C26.1212 5.67678 26.2567 5.67428 26.3322 5.62478C27.5802 4.81028 28.9442 4.27278 30.3947 3.96528C30.9452 3.84878 31.5132 3.79778 32.0762 3.76178C32.7607 3.71828 33.4507 3.67828 34.1337 3.71778C34.9547 3.76478 35.7717 3.88578 36.5877 3.99778C36.9837 4.05178 37.3702 4.18928 37.7672 4.22678C37.9572 4.24478 38.1587 4.10578 38.3597 4.05928C39.3842 3.82278 40.4042 3.55928 41.4377 3.37228C42.2072 3.23328 42.9932 3.16778 43.7757 3.12278C44.6482 3.07278 45.5272 3.03628 46.3992 3.07828C47.5033 3.13296 48.6003 3.28742 49.6767 3.53978C51.0152 3.85128 52.2992 4.30378 53.5197 4.93178C54.4317 5.40078 55.2987 5.94478 56.0792 6.61378C56.5907 7.05278 57.1142 7.48628 57.5762 7.97528C58.1462 8.57828 58.7277 9.18178 59.0852 9.95428C59.3542 10.5368 59.5462 11.1398 59.5992 11.7778C59.6652 12.5708 59.7452 13.3668 59.7377 14.1608C59.7307 14.9203 59.6272 15.6793 59.5537 16.4368C59.3867 18.1638 59.0112 19.8533 58.5552 21.5203C58.1737 22.8973 57.7419 24.2599 57.2607 25.6053C56.8212 26.8458 56.3142 28.0638 55.8017 29.2768C55.4244 30.1753 55.0145 31.0597 54.5727 31.9283C53.7342 33.5713 52.8622 35.1973 51.8537 36.7448C51.6797 37.0123 51.5147 37.2863 51.3447 37.5593C51.7847 37.8563 52.2832 37.9608 52.7852 38.0148C53.2627 38.0668 53.7497 38.0978 54.2267 38.0623C54.9902 38.0058 55.7512 37.8968 56.5102 37.7903C57.2622 37.6853 57.9992 37.4713 58.7712 37.5278C59.5422 37.5838 60.0937 38.1698 60.0412 38.8923ZM49.0347 37.2158C48.7072 36.7928 48.3732 36.3748 48.0527 35.9468C47.5497 35.2748 47.1882 34.5243 46.8252 33.7703C46.4812 33.0558 46.0592 32.3793 45.6967 31.6728C45.0642 30.4403 44.4202 29.2118 43.8377 27.9553C43.1052 26.3768 42.5277 24.7423 42.3457 22.9938C42.2687 22.2538 42.2492 21.5148 42.3987 20.7818C42.6382 19.6113 43.2497 18.6958 44.2777 18.0678C45.2312 17.4853 46.2937 17.2973 47.3822 17.2383C48.0577 17.2018 48.7362 17.2318 49.4372 17.2318L49.4137 17.1133C48.9777 16.2018 48.5702 15.2748 48.0932 14.3848C47.4202 13.1288 46.5592 11.9963 45.6002 10.9463C44.8897 10.1688 44.1202 9.44728 43.2772 8.80978C42.4482 8.18228 41.5747 7.62178 40.6427 7.16328C39.5312 6.61678 38.3737 6.19428 37.1592 5.92478C35.9922 5.66578 34.8177 5.50728 33.6207 5.49428C32.5997 5.48328 31.5852 5.52928 30.5907 5.75978C29.0897 6.10728 27.7167 6.72528 26.5222 7.72628C25.8613 8.28052 25.2707 8.91356 24.7637 9.61128C24.1657 10.4328 23.6832 11.3198 23.2707 12.2498C22.7047 13.5258 22.3162 14.8538 22.0507 16.2188C21.9177 16.8993 21.8137 17.5858 21.7077 18.2718C21.6707 18.5118 21.6677 18.7573 21.6462 19.0323C21.8307 18.9363 21.9637 18.8623 22.0997 18.7963L22.5422 18.5978C24.0387 17.9133 25.5892 17.4728 27.2557 17.5233C27.9637 17.5448 28.6412 17.6848 29.2707 17.9948C30.4782 18.5903 31.1847 19.6028 31.4917 20.8843C31.7037 21.7688 31.8487 22.6708 31.9897 23.5703C32.1002 24.2728 32.2132 24.9828 32.2262 25.6913C32.2447 26.7268 32.1922 27.7643 32.1357 28.7993C32.0872 29.6794 31.9051 30.5469 31.5957 31.3723C31.0357 32.8688 30.4117 34.3408 29.8287 35.8288C29.6362 36.3203 29.4882 36.8293 29.3062 37.3698C29.5872 37.3698 29.8152 37.3678 30.0432 37.3708C30.1322 37.3723 30.2232 37.3748 30.3092 37.3953C30.9792 37.5533 31.5602 37.8568 32.0367 38.3723C32.6722 39.0583 33.0057 39.8588 33.0227 40.7853C33.0322 41.2988 32.9782 41.8138 32.9807 42.3273C32.9912 44.7203 33.0092 47.1133 33.0292 49.5058C33.0327 49.8968 33.0522 50.2883 33.0802 50.6788C33.1387 51.4963 33.1977 52.3143 33.2777 53.1298C33.3337 53.7083 33.4117 54.2858 33.5032 54.8603C33.6327 55.6743 34.0032 56.3988 34.4237 57.0913C34.7857 57.6868 35.2562 58.1928 35.8762 58.5418C36.9297 59.1348 38.0642 59.1843 39.2077 58.9658C39.9802 58.8183 40.7387 58.5813 41.4887 58.3368C42.2262 58.1002 42.8996 57.6975 43.4572 57.1598C43.9827 56.6503 44.3557 56.0293 44.6072 55.3438C45.0952 54.0143 45.2472 52.6143 45.4492 51.2253C45.5247 50.7053 45.5902 50.1838 45.6592 49.6628C45.7377 49.0698 45.8172 48.4773 45.8932 47.8848C45.9492 47.4433 46.0002 47.0008 46.0542 46.5593C46.1312 45.9253 46.2127 45.2918 46.2862 44.6573C46.3427 44.1668 46.3907 43.6743 46.4407 43.1828C46.5052 42.5548 46.5747 41.9268 46.6302 41.2978C46.6732 40.8203 46.6557 40.3343 46.7402 39.8658C46.8957 39.0068 47.3017 38.2758 48.0632 37.8033C48.3817 37.6058 48.7412 37.4758 49.0947 37.3088L49.0347 37.2158ZM20.2362 33.6898C19.8564 32.7967 19.6276 31.8468 19.5592 30.8788C19.4952 29.9663 19.6037 29.0573 19.6972 28.1488C19.7882 27.2688 19.8637 26.3848 19.8902 25.5008C19.9342 24.0478 19.8362 22.5968 19.7667 21.1448C19.7247 20.2803 19.8252 19.4053 19.9022 18.5388C19.9717 17.7583 20.0582 16.9758 20.2057 16.2068C20.4532 14.9163 20.7817 13.6443 21.2487 12.4113C21.6922 11.2423 22.2017 10.1038 22.9212 9.07878C23.4142 8.37578 23.9737 7.71878 24.5112 7.03178L24.3517 6.97528C22.6027 6.41978 20.8252 5.98578 18.9972 5.79628C18.1327 5.70678 17.2652 5.65428 16.3982 5.60278C16.1322 5.58678 15.8622 5.62278 15.5952 5.64828C14.9342 5.71128 14.2652 5.73628 13.6147 5.86028C12.5077 6.07078 11.4457 6.42478 10.4622 7.00128C9.57916 7.51878 8.83766 8.18778 8.21666 8.99028C7.53066 9.87628 7.06916 10.8783 6.73766 11.9468C6.34616 13.2073 6.15966 14.5043 6.10916 15.8133C6.06516 16.9608 6.04316 18.1148 6.24116 19.2578C6.38866 20.1088 6.48716 20.9688 6.64966 21.8163C6.87116 22.9718 7.10866 24.1248 7.38316 25.2683C7.77566 26.9053 8.16766 28.5448 8.63266 30.1618C9.07766 31.7113 9.57966 33.2468 10.1237 34.7638C10.5687 36.0018 11.0832 37.2168 11.6252 38.4158C11.9782 39.1968 12.4057 39.9483 12.8537 40.6798C13.3302 41.4563 13.8722 42.1933 14.6077 42.7568C15.5357 43.4683 16.2542 43.5788 17.1972 42.7983C17.6012 42.4638 17.9427 42.0508 18.2942 41.6573C18.8527 41.0323 19.3917 40.3903 19.9477 39.7633C20.6557 38.9643 21.3727 38.1738 22.0842 37.3788C22.2347 37.2108 22.3792 37.0378 22.5257 36.8678L22.2837 36.6553C21.4049 35.8177 20.708 34.8083 20.2362 33.6898ZM47.0802 9.90528C47.6619 10.5816 48.2139 11.2829 48.7347 12.0073C49.7347 13.4118 50.5337 14.9283 51.1222 16.5508C51.3827 17.2658 51.5907 17.9878 51.4977 18.7703C51.4332 19.3183 51.4387 19.8743 51.3902 20.4253C51.3497 20.8838 51.2772 21.3398 51.2177 21.7968C51.1287 22.4858 50.9997 23.1728 50.9612 23.8648C50.9247 24.5233 50.9627 25.1888 51.0042 25.8488C51.0462 26.5193 51.1367 27.1868 51.1982 27.8563C51.2677 28.6153 51.3612 29.3743 51.3827 30.1348C51.4002 30.7593 51.3447 31.3878 51.2902 32.0113C51.2252 32.7623 51.0347 33.4893 50.7507 34.1868C50.5512 34.6778 50.3127 35.1538 50.0872 35.6453L50.1777 35.7413L50.3152 35.8478L50.4537 35.5998C51.6233 33.7591 52.6628 31.8389 53.5647 29.8533C54.1417 28.5715 54.6897 27.2768 55.2082 25.9703C56.0202 23.9383 56.6627 21.8493 57.1597 19.7188C57.3827 18.7623 57.5532 17.7913 57.7047 16.8203C57.8227 16.0613 57.9212 15.2933 57.9432 14.5273C57.9667 13.7148 57.9217 12.8958 57.8467 12.0853C57.7907 11.4733 57.6397 10.8573 57.2562 10.3598C56.6397 9.55878 55.9742 8.79278 55.1557 8.18678C54.4667 7.67628 53.7802 7.15278 53.0407 6.72328C51.8682 6.04328 50.5992 5.59028 49.2732 5.28178C47.9792 4.98028 46.6682 4.85028 45.3487 4.82278C44.5707 4.80628 43.7892 4.88978 43.0127 4.96278C42.3092 5.02878 41.6102 5.14128 40.9017 5.23428C41.6617 5.66178 42.4112 6.04178 43.1182 6.48978C44.6047 7.43128 45.9367 8.56428 47.0802 9.90528ZM27.7677 36.2663C28.2482 34.7298 28.9027 33.2628 29.5367 31.7868C30.0507 30.5898 30.3317 29.3288 30.4252 28.0338C30.4717 27.3953 30.4587 26.7488 30.4272 26.1083C30.3959 25.3957 30.3305 24.6851 30.2312 23.9788C30.0982 23.0783 29.9467 22.1773 29.7337 21.2933C29.5027 20.3368 28.9202 19.6708 27.9222 19.4253C27.3142 19.2758 26.7102 19.2818 26.0957 19.3788C24.5947 19.6153 23.2207 20.1683 21.9407 20.9783C21.6832 21.1413 21.5417 21.2728 21.5862 21.6423C21.6802 22.4248 21.7007 23.2198 21.6972 24.0098C21.6922 25.1278 21.6447 26.2458 21.6022 27.3633C21.5882 27.7273 21.5357 28.0893 21.4967 28.4518C21.4367 29.0068 21.3212 29.5613 21.3247 30.1153C21.3282 30.6863 21.3867 31.2708 21.5252 31.8238C21.9652 33.5773 22.8972 35.0123 24.4247 36.0248C25.3642 36.6473 26.4037 36.9613 27.5447 37.0208C27.6222 36.7588 27.6912 36.5113 27.7677 36.2663ZM25.9747 21.2228C25.7737 20.8008 25.8887 20.4513 26.3547 20.2893C26.4682 20.2493 26.5852 20.2068 26.7032 20.1953C26.8652 20.1793 27.0302 20.1913 27.1942 20.1913C27.7852 20.1943 28.3537 20.2768 28.8417 20.6528C29.1547 20.8938 29.2387 21.2138 29.0362 21.5423C28.7487 22.0083 28.3102 22.2423 27.7717 22.2873C26.9232 22.3578 26.3277 21.9623 25.9747 21.2228ZM49.4947 21.0688C49.5627 20.5068 49.6172 19.9433 49.6867 19.3813C49.7147 19.1553 49.5957 19.0943 49.4062 19.0888C48.8102 19.0723 48.2142 19.0513 47.6182 19.0403C46.9462 19.0283 46.2922 19.1363 45.6702 19.3918C44.9802 19.6758 44.4547 20.1308 44.2402 20.8818C44.0832 21.4356 44.0335 22.0143 44.0937 22.5868C44.1772 23.472 44.3778 24.3423 44.6902 25.1748C45.1072 26.2853 45.5437 27.3953 46.0652 28.4593C46.7717 29.8998 47.5712 31.2943 48.3217 32.7128C48.5222 33.0913 48.6907 33.4863 48.8997 33.9283C49.321 33.0496 49.5513 32.0915 49.5752 31.1173C49.5957 30.3123 49.5312 29.5038 49.4842 28.6983C49.4547 28.2053 49.3852 27.7153 49.3372 27.2233C49.2702 26.5378 49.1687 25.8528 49.1532 25.1658C49.1377 24.4673 49.1872 23.7648 49.2472 23.0673C49.3037 22.3983 49.4142 21.7348 49.4947 21.0688ZM48.1502 20.5278C47.9287 21.1393 47.4552 21.4843 46.8412 21.5858C46.2687 21.6798 45.7672 21.4683 45.3942 21.0118C45.1287 20.6868 45.2302 20.3018 45.6282 20.0823C46.0852 19.8293 46.5877 19.7653 47.1802 19.7268C47.3412 19.7563 47.5837 19.7808 47.8142 19.8468C48.1487 19.9413 48.2722 20.1928 48.1502 20.5278ZM30.4392 39.3578C30.1117 39.0903 29.6787 39.0748 29.3672 39.3683C28.9807 39.7333 28.6407 40.1508 28.3007 40.5623C27.9082 41.0378 27.5402 41.5323 27.0337 41.9008C26.2967 42.4363 25.4377 42.6583 24.5742 42.8683C23.8877 43.0353 23.1982 43.1903 22.5097 43.3508L22.5012 43.4398C22.7057 43.5343 22.9037 43.6523 23.1167 43.7198C24.1667 44.0523 25.2347 44.2178 26.3442 44.1238C27.1452 44.0558 27.9082 43.8813 28.6312 43.5383C29.6262 43.0668 30.3917 42.3198 31.0427 41.4508C31.1517 41.3058 31.2012 41.0913 31.2142 40.9043C31.2587 40.2438 30.9232 39.7528 30.4392 39.3578ZM56.3147 39.6208C55.4697 39.7113 54.6237 39.8073 53.7762 39.8558C53.3672 39.8793 52.9522 39.8013 52.5392 39.7678C51.8467 39.7118 51.1707 39.5578 50.5852 39.1878C50.2462 38.9743 49.9647 38.9503 49.6047 39.0713C49.0907 39.2443 48.6712 39.5073 48.5472 40.0643C48.4627 40.4408 48.4322 40.8308 48.3982 41.2163C48.3917 41.2843 48.4767 41.4093 48.5417 41.4263C48.9382 41.5308 49.3367 41.6543 49.7422 41.6908C50.2402 41.7358 50.7472 41.7213 51.2487 41.6963C51.7902 41.6693 52.3352 41.6343 52.8687 41.5443C54.1262 41.3333 55.3427 40.9893 56.4232 40.2763C56.8127 40.0188 57.1987 39.7558 57.5857 39.4953L57.5537 39.4403C57.1407 39.5018 56.7297 39.5768 56.3147 39.6208Z" fill="#2C2E32"/>
</svg>
