<svg width="65" height="64" viewBox="0 0 65 64" fill="none" xmlns="http://www.w3.org/2000/svg">
<g clip-path="url(#clip0_80_37)">
<path d="M4.49817 0.509277L9.52567 56.9508L32.0847 63.2408L54.7067 56.9278L59.7382 0.509277H4.49817ZM49.2937 13.4403L47.6202 32.2428L47.6252 32.3443L47.6182 32.5778V32.5758L46.4292 45.7228L46.2982 46.8908L32.1182 50.8128L32.1072 50.8228L17.9517 46.8788L16.9932 36.0093H23.9347L24.4272 41.5363L32.1202 43.6213L32.1182 43.6253V43.6243L39.8397 41.5098L40.6557 32.5093H24.5142L24.3757 30.9878L24.0602 27.4233L23.8947 25.5093H41.2692L41.9012 18.5093H15.4382L15.2997 16.9888L14.9847 13.4233L14.8187 11.5093H49.4592L49.2937 13.4403Z" fill="#2C2E32"/>
</g>
<defs>
<clipPath id="clip0_80_37">
<rect width="64" height="64" fill="white" transform="translate(0.118164 0.00927734)"/>
</clipPath>
</defs>
</svg>
