<svg width="65" height="64" viewBox="0 0 65 64" fill="none" xmlns="http://www.w3.org/2000/svg">
<g clip-path="url(#clip0_80_31)">
<path d="M1.11816 0.509277V63.0093H63.6182V0.509277H1.11816ZM34.1777 53.7658C33.2552 55.6403 31.4942 56.8718 29.4537 57.4663C26.3182 58.1863 23.3192 57.7758 21.0882 56.4368C19.5952 55.5208 18.4292 54.1108 17.6377 52.4863L22.3977 49.5713C22.4392 49.5888 22.5642 49.8148 22.7312 50.1068C23.3382 51.1238 23.8617 51.8438 24.8907 52.3493C25.9017 52.6943 28.1212 52.9148 28.9782 51.1358C29.5017 50.2308 29.3352 47.3218 29.3352 44.1033C29.3347 39.0458 29.3582 34.0093 29.3582 29.0093H35.2127C35.2127 34.5093 35.2427 39.7183 35.2127 45.0853C35.2252 48.3753 35.5107 51.3083 34.1777 53.7658ZM58.4647 52.1118C56.4297 59.0728 45.0837 59.2988 40.5497 54.6998C39.5917 53.6173 38.9912 53.0518 38.4197 51.8023C40.8292 50.4163 40.8292 50.4163 43.1737 49.0598C44.4472 51.0173 45.6247 52.0938 47.7432 52.5343C50.6172 52.8853 53.5087 51.8978 52.8602 48.8453C52.1937 46.3523 46.9752 45.7458 43.4237 43.0798C39.8182 40.6583 38.9732 34.7743 41.9362 31.4123C42.9237 30.1688 44.6077 29.2408 46.3747 28.7948L48.2187 28.5563C51.7592 28.4848 53.9722 29.4198 55.5967 31.2338C56.0487 31.6918 56.4177 32.1858 57.1077 33.2563C55.2217 34.4583 55.2277 34.4468 52.5262 36.1958C51.9492 34.9528 50.9917 34.1728 49.9797 33.8338C48.4087 33.3578 46.4277 33.8753 46.0167 35.5353C45.8742 36.0468 45.9037 36.5228 46.1302 37.3678C46.7667 38.8193 48.9027 39.4503 50.8187 40.3308C56.3342 42.5678 58.1967 44.9663 58.6547 47.8213C59.0957 50.2793 58.5482 51.8738 58.4647 52.1118Z" fill="#2C2E32"/>
</g>
<defs>
<clipPath id="clip0_80_31">
<rect width="64" height="64" fill="white" transform="translate(0.118164 0.00927734)"/>
</clipPath>
</defs>
</svg>
