<svg width="65" height="64" viewBox="0 0 65 64" fill="none" xmlns="http://www.w3.org/2000/svg">
<g clip-path="url(#clip0_80_60)">
<path d="M32.1182 0.00927734C23.6312 0.00927734 15.4919 3.3807 9.49075 9.38186C3.48958 15.383 0.118164 23.5224 0.118164 32.0093C0.118164 40.4962 3.48958 48.6355 9.49075 54.6367C15.4919 60.6379 23.6312 64.0093 32.1182 64.0093C38.4416 63.9968 44.6196 62.1111 49.8722 58.5903L23.6252 24.6793V44.7983H19.3182V19.2093H24.7022L53.2647 56.0013C56.6722 53.001 59.4023 49.31 61.2736 45.1734C63.1449 41.0368 64.1146 36.5494 64.1182 32.0093C64.1182 23.5224 60.7467 15.383 54.7456 9.38186C48.7444 3.3807 40.6051 0.00927734 32.1182 0.00927734ZM41.0067 19.2093H45.2737V43.5973L41.0067 37.9943V19.2093ZM53.0967 56.1693L53.0412 56.2173C53.0597 56.2013 53.0782 56.1853 53.0967 56.1693Z" fill="#2C2E32"/>
</g>
<defs>
<clipPath id="clip0_80_60">
<rect width="64" height="64" fill="white" transform="translate(0.118164 0.00927734)"/>
</clipPath>
</defs>
</svg>
