<svg width="65" height="64" viewBox="0 0 65 64" fill="none" xmlns="http://www.w3.org/2000/svg">
<g clip-path="url(#clip0_80_47)">
<path d="M49.6381 25.1668C47.8151 24.5928 46.8741 24.7863 44.9626 24.5768C42.0076 24.2543 40.8301 23.0973 40.3306 20.1203C40.0511 18.4583 40.3811 16.0248 39.6676 14.5183C38.3031 11.6453 35.1101 10.3568 31.9026 11.0923C29.1941 11.7143 26.9406 14.4253 26.8156 17.2083C26.6731 20.3858 28.4806 23.0973 31.5841 24.0333C33.0591 24.4783 34.6256 24.7023 36.1656 24.8158C38.9901 25.0223 39.2071 26.5948 39.9706 27.8893C40.4526 28.7053 40.9191 29.5093 40.9191 31.9428C40.9191 34.3763 40.4496 35.1798 39.9711 35.9958C39.2071 37.2873 38.2646 38.1333 35.4401 38.3423C33.9001 38.4563 32.3301 38.6803 30.8591 39.1258C27.7551 40.0643 25.9476 42.7723 26.0901 45.9503C26.2151 48.7333 28.4686 51.4443 31.1771 52.0663C34.3846 52.8043 37.5776 51.5133 38.9421 48.6403C39.6586 47.1338 40.0511 45.4268 40.3306 43.7653C40.8331 40.7878 42.0106 39.6308 44.9626 39.3078C46.8741 39.0988 48.8526 39.3078 50.6441 38.2888C52.5366 36.9038 54.2281 34.8238 54.2281 31.9428C54.2281 29.0608 52.4056 26.0398 49.6381 25.1668Z" fill="#2C2E32"/>
<path d="M19.3182 38.6958C15.5932 38.6958 12.5542 35.6468 12.5542 31.9083C12.5542 28.1703 15.5927 25.1213 19.3177 25.1213C23.0427 25.1213 26.0817 28.1703 26.0817 31.9083C26.0817 35.6433 23.0402 38.6958 19.3177 38.6958H19.3182ZM6.85818 52.4893C3.13818 52.4803 0.109184 49.4193 0.118184 45.6778C0.127184 41.9428 3.17768 38.9028 6.90568 38.9148C10.6277 38.9238 13.6572 41.9848 13.6457 45.7258C13.6367 49.4578 10.5857 52.4983 6.85818 52.4893ZM57.1142 52.4893C53.3832 52.5098 50.3212 49.4818 50.2997 45.7528C50.2792 42.0088 53.2967 38.9358 57.0127 38.9148C60.7437 38.8938 63.8062 41.9218 63.8272 45.6508C63.8477 49.3918 60.8302 52.4683 57.1142 52.4893Z" fill="#2C2E32"/>
</g>
<defs>
<clipPath id="clip0_80_47">
<rect width="64" height="64" fill="white" transform="translate(0.118164 0.00927734)"/>
</clipPath>
</defs>
</svg>
