<svg width="65" height="64" viewBox="0 0 65 64" fill="none" xmlns="http://www.w3.org/2000/svg">
<g clip-path="url(#clip0_80_43)">
<path d="M32.1181 37.7093C35.2661 37.7093 37.8181 35.1574 37.8181 32.0093C37.8181 28.8613 35.2661 26.3093 32.1181 26.3093C28.9701 26.3093 26.4181 28.8613 26.4181 32.0093C26.4181 35.1574 28.9701 37.7093 32.1181 37.7093Z" fill="#2C2E32"/>
<path d="M53.7681 22.6093C52.6681 22.2093 51.5181 21.8093 50.3181 21.4593C50.6181 20.2593 50.8681 19.0593 51.0681 17.9093C52.1181 11.3093 50.9681 6.65933 47.7681 4.85933C46.8181 4.30933 45.7681 4.05933 44.5681 4.05933C41.0681 4.05933 36.6181 6.65933 32.1181 11.0093C27.6181 6.65933 23.1681 4.05933 19.6681 4.05933C18.4681 4.05933 17.4181 4.30933 16.4681 4.85933C13.2681 6.70933 12.1181 11.3593 13.1681 17.9093C13.3681 19.0593 13.6181 20.2593 13.9181 21.4593C12.7181 21.8093 11.5681 22.1593 10.4681 22.6093C4.21812 25.0093 0.818115 28.3093 0.818115 32.0093C0.818115 35.7093 4.26812 39.0093 10.4681 41.4093C11.5681 41.8093 12.7181 42.2093 13.9181 42.5593C13.6181 43.7593 13.3681 44.9593 13.1681 46.1093C12.1181 52.7093 13.2681 57.3593 16.4681 59.1593C17.4181 59.7093 18.4681 59.9593 19.6681 59.9593C23.2181 59.9593 27.6681 57.3593 32.1181 53.0093C36.6181 57.3593 41.0681 59.9593 44.5681 59.9593C45.7681 59.9593 46.8181 59.7093 47.7681 59.1593C50.9681 57.3093 52.1181 52.6593 51.0681 46.1093C50.8681 44.9593 50.6181 43.7593 50.3181 42.5593C51.5181 42.2093 52.6681 41.8593 53.7681 41.4093C60.0181 39.0093 63.4181 35.7093 63.4181 32.0093C63.4181 28.3093 60.0181 25.0093 53.7681 22.6093ZM46.3681 7.35933C48.4181 8.55933 49.1181 12.2593 48.2681 17.5093C48.1181 18.5593 47.8681 19.6593 47.5681 20.8093C44.9681 20.2093 42.2181 19.8093 39.3181 19.5593C37.6181 17.1593 35.8681 15.0093 34.1181 13.0593C37.8181 9.40933 41.5681 6.90933 44.6181 6.90933C45.2681 6.90933 45.8681 7.05933 46.3681 7.35933ZM40.7681 37.0093C39.8681 38.6093 38.8181 40.2093 37.7181 41.8093C35.8681 41.9593 34.0181 42.0093 32.1181 42.0093C30.1681 42.0093 28.3181 41.9593 26.5181 41.8093C25.4181 40.2093 24.4181 38.6093 23.5181 37.0093C22.5681 35.3593 21.6681 33.6593 20.8681 32.0093C21.6681 30.3593 22.5681 28.6593 23.5181 27.0093C24.4181 25.4093 25.4681 23.8093 26.5681 22.2093C28.4181 22.0593 30.2681 22.0093 32.1681 22.0093C34.1181 22.0093 35.9681 22.0593 37.7681 22.2093C38.8681 23.8093 39.8681 25.4093 40.7681 27.0093C41.7181 28.6593 42.6181 30.3593 43.4181 32.0093C42.5681 33.6593 41.7181 35.3093 40.7681 37.0093ZM44.9181 35.3593C45.6681 37.1093 46.2681 38.8093 46.8181 40.5093C45.1181 40.9093 43.3181 41.2093 41.4181 41.4593C42.0181 40.5093 42.6681 39.5093 43.2181 38.4593C43.8181 37.4093 44.3681 36.3593 44.9181 35.3593ZM32.1181 48.9093C30.9181 47.6093 29.7681 46.2093 28.6681 44.7593C29.8181 44.8093 30.9681 44.8593 32.1181 44.8593C33.2681 44.8593 34.4181 44.8093 35.5681 44.7593C34.4681 46.2093 33.3181 47.6093 32.1181 48.9093ZM22.8181 41.4093C20.9181 41.1593 19.1181 40.8593 17.4181 40.4593C17.9681 38.8093 18.5681 37.0593 19.3181 35.3093C19.8681 36.3093 20.4181 37.3593 21.0181 38.3593C21.6181 39.4593 22.2181 40.4093 22.8181 41.4093ZM19.3181 28.6593C18.5681 26.9093 17.9681 25.2093 17.4181 23.5093C19.1181 23.1093 20.9181 22.8093 22.8181 22.5593C22.2181 23.5093 21.5681 24.5093 21.0181 25.5593C20.4181 26.6093 19.8681 27.6593 19.3181 28.6593ZM32.1181 15.1093C33.3181 16.4093 34.4681 17.8093 35.5681 19.2593C34.4181 19.2093 33.2681 19.1593 32.1181 19.1593C30.9681 19.1593 29.8181 19.2093 28.6681 19.2593C29.7681 17.8093 30.9181 16.4093 32.1181 15.1093ZM43.2181 25.6093L41.4181 22.6093C43.3181 22.8593 45.1181 23.1593 46.8181 23.5593C46.2681 25.2093 45.6681 26.9593 44.9181 28.7093C44.3681 27.6593 43.8181 26.6093 43.2181 25.6093ZM15.9681 17.5093C15.1181 12.2593 15.8181 8.55933 17.8681 7.35933C18.3681 7.05933 18.9681 6.90933 19.6181 6.90933C22.6181 6.90933 26.3681 9.35933 30.1181 13.0593C28.3681 14.9593 26.6181 17.1593 24.9181 19.5593C22.0181 19.8093 19.2681 20.2593 16.6681 20.8093C16.3681 19.6593 16.1681 18.5593 15.9681 17.5093ZM3.61812 32.0093C3.61812 29.6593 6.46812 27.1593 11.4681 25.3093C12.4681 24.9093 13.5681 24.5593 14.6681 24.2593C15.4681 26.7593 16.4681 29.4093 17.6681 32.0593C16.4681 34.7093 15.4181 37.3093 14.6681 39.8093C7.76812 37.8093 3.61812 34.8093 3.61812 32.0093ZM17.8681 56.6593C15.8181 55.4593 15.1181 51.7593 15.9681 46.5093C16.1181 45.4593 16.3681 44.3593 16.6681 43.2093C19.2681 43.8093 22.0181 44.2093 24.9181 44.4593C26.6181 46.8593 28.3681 49.0093 30.1181 50.9593C26.4181 54.6093 22.6681 57.1093 19.6181 57.1093C18.9681 57.1093 18.3681 56.9593 17.8681 56.6593ZM48.2681 46.5093C49.1181 51.7593 48.4181 55.4593 46.3681 56.6593C45.8681 56.9593 45.2681 57.1093 44.6181 57.1093C41.6181 57.1093 37.8681 54.6593 34.1181 50.9593C35.8681 49.0593 37.6181 46.8593 39.3181 44.4593C42.2181 44.2093 44.9681 43.7593 47.5681 43.2093C47.8681 44.3593 48.0681 45.4593 48.2681 46.5093ZM52.7681 38.7093C51.7681 39.1093 50.6681 39.4593 49.5681 39.7593C48.7681 37.2593 47.7681 34.6093 46.5681 31.9593C47.7681 29.3093 48.8181 26.7093 49.5681 24.2093C56.4681 26.2093 60.6181 29.2093 60.6181 32.0093C60.6181 34.3593 57.7181 36.8593 52.7681 38.7093Z" fill="#2C2E32"/>
</g>
<defs>
<clipPath id="clip0_80_43">
<rect width="64" height="64" fill="white" transform="translate(0.118164 0.00927734)"/>
</clipPath>
</defs>
</svg>
