<svg width="65" height="64" viewBox="0 0 65 64" fill="none" xmlns="http://www.w3.org/2000/svg">
<g clip-path="url(#clip0_80_41)">
<path fill-rule="evenodd" clip-rule="evenodd" d="M0.727661 28.0873C0.727661 28.4388 0.831161 28.6708 0.889161 28.8963C1.26716 30.3628 2.07966 31.6213 3.04366 32.7693C4.41666 34.4053 6.09816 35.7223 7.82066 36.9608C9.31466 38.0348 10.8392 39.0848 12.3392 40.1508C12.5967 40.3338 12.8402 40.5443 13.1197 40.7688C12.8792 40.8988 12.6792 41.0133 12.4712 41.1188C10.4917 42.1228 8.58716 43.2483 6.83166 44.6118C5.77366 45.4338 4.75066 46.3073 4.02816 47.4488C2.86566 49.2848 2.45416 51.2408 3.32066 53.3293C3.57366 53.9393 3.95966 54.4663 4.50416 54.8558C4.68066 54.9818 4.87866 55.1068 5.08516 55.1558C5.61416 55.2803 6.15316 55.3618 6.68866 55.4603L8.20516 55.4593C9.88216 55.3098 11.4087 54.7353 12.7882 53.7833C14.9442 52.2953 16.3967 50.3003 17.0212 47.7398C17.4752 45.8788 17.4937 44.0158 16.9587 42.1633C16.9075 41.9917 16.8484 41.8225 16.7817 41.6563C16.7167 41.4898 16.6402 41.3278 16.5502 41.1203L19.9882 39.1433L20.0397 39.1873C19.9772 39.3918 19.9107 39.5958 19.8542 39.8023C19.4457 41.2943 19.1742 42.8123 19.2717 44.3608C19.3757 46.0108 19.8362 47.5553 20.8022 48.9338C21.5832 50.0488 23.4442 50.0903 24.2742 48.9713C24.5687 48.5738 24.8542 48.1583 25.0687 47.7148C25.6292 46.5573 26.1482 45.3793 26.6837 44.2093L26.7772 43.9953C26.7387 44.5493 26.6937 45.0358 26.6732 45.5228C26.6412 46.2833 26.6857 47.0393 26.9457 47.7628C27.1682 48.3818 27.5467 48.8443 28.2557 48.9258C28.7407 48.9813 29.1272 48.7593 29.4837 48.4778C30.036 48.0413 30.4937 47.4971 30.8292 46.8783C31.7797 45.1328 32.7557 43.3978 33.6172 41.6083C34.5492 39.6728 35.3642 37.6808 36.2297 35.7123L36.3727 35.3633C36.5772 36.1668 36.7197 36.9538 36.9822 37.6988C37.2872 38.5633 37.6647 39.4073 38.0757 40.2278C38.2702 40.6153 38.2477 40.8668 37.9782 41.1918C36.8502 42.5518 35.7417 43.9283 34.6322 45.3033C34.3867 45.6068 34.1422 45.9158 33.9377 46.2473C33.8136 46.4566 33.732 46.6884 33.6977 46.9293C33.6632 47.1511 33.716 47.3776 33.8449 47.5613C33.9739 47.745 34.1689 47.8717 34.3892 47.9148C34.8337 48.0105 35.2895 48.043 35.7432 48.0113C37.2917 47.8973 38.6977 47.3538 39.9407 46.4328C41.5512 45.2398 42.0682 43.6118 41.6782 41.6823C41.5727 41.1588 41.3862 40.6498 41.2047 40.1453C41.1232 39.9178 41.1177 39.7583 41.2662 39.5463C42.5537 37.7078 43.6537 35.7573 44.6767 33.7618C44.7172 33.6833 44.7587 33.6048 44.8297 33.5208C45.1612 35.2458 45.6602 36.9083 46.5542 38.4168C46.0982 38.8563 45.6467 39.2548 45.2382 39.6938C44.3387 40.6608 43.5587 41.7108 43.1517 42.9913C42.9767 43.5433 42.8422 44.1043 42.9202 44.6938C43.0412 45.6093 43.7912 46.2043 44.6917 45.9958C46.6187 45.5498 48.2822 44.6418 49.4977 43.0333C50.3157 41.9503 50.3902 40.7423 50.0477 39.4768C49.9537 39.1328 49.8422 38.7943 49.7222 38.3998C50.1977 38.2523 50.6612 38.0753 51.1407 37.9658C53.6302 37.3978 56.0927 37.4968 58.4917 38.3958C59.8922 38.9208 61.0237 39.7993 61.6947 41.1813C62.5142 42.8708 62.0612 44.4738 60.4687 45.5418C60.3202 45.6413 60.1502 45.7198 60.0272 45.8443C59.9878 45.8899 59.9583 45.9433 59.9407 46.001C59.923 46.0587 59.9176 46.1194 59.9247 46.1793C59.9352 46.2408 60.0977 46.3178 60.1912 46.3168C60.7147 46.3128 61.1392 46.0383 61.5467 45.7563C62.5677 45.0498 63.3127 44.0993 63.4732 42.8478L63.5047 42.7538L63.4662 41.9388C63.4507 41.8918 63.4777 41.8453 63.4742 41.8098C63.2572 39.9873 62.2837 38.5738 60.8677 37.4658C59.2277 36.1833 57.2912 35.6553 55.2432 35.5718C53.5822 35.5003 51.9233 35.7556 50.3607 36.3233C49.9122 36.4858 49.4677 36.6783 49.0167 36.8598C48.9562 36.7503 48.8912 36.6453 48.8377 36.5368C48.3747 35.5888 47.8137 34.6828 47.6897 33.5958C47.6017 32.8238 47.4937 32.0528 47.6772 31.2893C47.8537 30.5548 48.0837 29.8328 48.3002 29.1083C48.4117 28.7353 48.3332 28.5263 47.9772 28.3583C47.8531 28.2964 47.7207 28.253 47.5842 28.2293C46.7092 28.1023 45.8462 28.1748 44.9987 28.4213C44.6987 28.5088 44.4807 28.6768 44.4142 29.0088C44.3762 29.1993 44.2987 29.3818 44.2447 29.5698C44.0232 30.3513 43.8662 31.1478 43.5082 31.8923C42.6112 33.7598 41.5872 35.5568 40.5392 37.3408C40.4257 37.5333 40.3062 37.7223 40.1632 37.9558C39.7952 37.1858 39.4027 36.4948 39.2837 35.6848C39.1492 34.7688 39.0432 33.8543 39.2712 32.9453C39.4407 32.2673 39.6622 31.6018 39.8662 30.9328C39.9627 30.6148 39.9182 30.4478 39.6302 30.2803C39.4847 30.1958 39.3202 30.1208 39.1562 30.0963C38.259 29.9596 37.3422 30.0346 36.4792 30.3153C36.2077 30.4033 36.0652 30.5788 35.9822 30.8588C35.7382 31.6848 35.5302 32.5308 35.1877 33.3163C33.8007 36.4963 32.3737 39.6598 30.9482 42.8228C30.6507 43.4833 30.3022 44.1208 29.9667 44.7638C29.8817 44.9268 29.7577 45.0703 29.6517 45.2233C29.5667 45.1228 29.5337 45.0538 29.5342 44.9848C29.5367 44.5783 29.4882 44.1598 29.5657 43.7668C29.8036 42.5782 30.0667 41.3948 30.3547 40.2173C30.5897 39.2443 30.8632 38.2803 31.1237 37.3138C31.2112 36.9903 31.2127 36.6878 30.9802 36.4158C30.5897 35.9603 29.7737 35.8603 29.2897 36.2113L29.0757 36.3323L29.1172 35.9873C29.2192 35.2478 29.2397 34.5108 29.0367 33.7823C28.7837 32.8743 28.1357 32.3518 27.1937 32.3808C26.7547 32.3943 26.2937 32.4693 25.8872 32.6293C24.1777 33.2993 22.8632 34.4858 21.7442 35.9133C21.6404 36.0458 21.5119 36.1569 21.3657 36.2403C19.9192 37.0423 18.4682 37.8343 17.0177 38.6293L15.4032 39.5138C14.9702 39.1008 14.5767 38.6723 14.1302 38.3088C12.7667 37.1968 11.3812 36.1123 10.0082 35.0128C8.79116 34.0383 7.61216 33.0233 6.71016 31.7328C6.03916 30.7728 5.60666 29.7223 5.56516 28.5353C5.51266 27.0228 5.94166 25.6408 6.71166 24.3543C7.69666 22.7083 9.04016 21.3873 10.5172 20.1908C12.0797 18.9258 13.7697 17.8518 15.5212 16.8713C17.9717 15.4998 20.4922 14.2858 23.1947 13.4843C25.9657 12.6623 28.7772 12.1918 31.6772 12.5198C32.8172 12.6488 33.9242 12.9098 34.9407 13.4673C35.7192 13.8938 36.3577 14.4523 36.6547 15.3253C36.9477 16.1843 36.9387 17.0548 36.7357 17.9273C36.3232 19.6943 35.3557 21.1508 34.1382 22.4523C32.1412 24.5858 29.7052 26.0383 26.9627 26.9978C25.3858 27.5502 23.7452 27.9002 22.0802 28.0393C20.7157 28.1538 19.3797 28.0328 18.0877 27.5583C17.2322 27.2438 16.4872 26.7628 15.8882 26.0648C15.7812 25.9398 15.6442 25.8043 15.4447 25.9213C15.2492 26.0363 15.2147 26.2223 15.2802 26.4108C15.3897 26.7238 15.4907 27.0498 15.6612 27.3298C16.0897 28.0323 16.7147 28.5418 17.4027 28.9788C18.7242 29.8193 20.2012 30.1018 21.7327 30.1673C24.0567 30.2678 26.3242 29.9208 28.5597 29.2973C31.7512 28.4073 34.5262 26.8353 36.7517 24.3553C38.6047 22.2903 39.9282 19.9598 40.2117 17.1458C40.3502 15.7723 40.2027 14.4268 39.5597 13.1738C38.8622 11.8163 37.7532 10.8068 36.4272 10.1113C34.4962 9.09878 32.4122 8.50928 30.2612 8.50928H28.1062C25.5012 8.50928 22.9827 9.25578 20.5347 10.1463C18.6817 10.8208 16.8647 11.6168 15.1007 12.4978C11.2592 14.4173 7.68166 16.7318 4.74316 19.9143C3.27916 21.4998 2.03966 23.2493 1.32666 25.3093C1.11146 25.9243 0.926081 26.5494 0.771161 27.1823M14.6907 45.1888C14.5242 47.4183 13.5137 49.2258 11.8622 50.6898C10.9332 51.5128 9.86766 52.0988 8.62666 52.3048C8.17666 52.3793 7.71616 52.3973 7.27966 52.2108C6.65716 51.9448 6.51766 51.3923 6.50566 50.8038C6.48716 49.8658 6.81566 49.0178 7.26616 48.2108C7.85416 47.1588 8.71616 46.3568 9.63666 45.6078C11.0867 44.4273 12.6597 43.4283 14.2707 42.4853L14.3922 42.4353C14.6412 43.3553 14.7597 44.2638 14.6907 45.1888ZM27.2697 35.4993C27.1522 36.2113 27.0052 36.9238 26.7972 37.6138C26.0782 40.0023 25.1547 42.3168 24.1562 44.6003C23.9717 45.0228 23.7032 45.4083 23.4697 45.8088C23.4299 45.8703 23.3824 45.9265 23.3282 45.9758C23.0392 46.2613 22.7652 46.2463 22.6192 45.8728C22.4492 45.4388 22.3447 44.9743 22.2547 44.5148C22.1942 44.2063 22.2087 43.8823 22.1897 43.5663C22.2092 41.3193 22.8947 39.2773 24.0577 37.3763C24.5372 36.5923 25.0592 35.8453 25.8567 35.3493C26.1047 35.195 26.3732 35.0762 26.6542 34.9963C27.0792 34.8768 27.3402 35.0733 27.2697 35.4993ZM35.8517 46.4333L38.9362 42.8318C39.0647 44.1693 36.7912 46.8393 35.8517 46.4333ZM45.7032 44.0098C45.4852 44.1348 45.2477 44.2248 45.0242 44.3403C44.8197 44.4463 44.7522 44.3393 44.7462 44.1633C44.7431 44.0414 44.7588 43.9199 44.7927 43.8028C45.2092 42.3338 45.9757 41.0798 47.1162 40.0598L47.1962 40.0188C47.7387 41.5363 47.1117 43.2028 45.7032 44.0098Z" fill="#2C2E32"/>
</g>
<defs>
<clipPath id="clip0_80_41">
<rect width="64" height="64" fill="white" transform="translate(0.118164 0.00927734)"/>
</clipPath>
</defs>
</svg>
