<svg width="65" height="64" viewBox="0 0 65 64" fill="none" xmlns="http://www.w3.org/2000/svg">
<g clip-path="url(#clip0_80_39)">
<path d="M32.1201 12.8103C23.5866 12.8103 18.2551 17.0753 16.1201 25.6088C19.3191 21.3433 23.0536 19.7438 27.3191 20.8103C29.7546 21.4173 31.4951 23.1833 33.4226 25.1403C36.5596 28.3238 40.1906 32.0093 48.1201 32.0093C56.6531 32.0093 61.9851 27.7438 64.1201 19.2083C60.9206 23.4763 57.1866 25.0758 52.9206 24.0093C50.4856 23.4018 48.7471 21.6363 46.8171 19.6793C43.6821 16.4958 40.0521 12.8103 32.1201 12.8103ZM16.1201 32.0093C7.58712 32.0093 2.25512 36.2748 0.120117 44.8103C3.31912 40.5423 7.05312 38.9428 11.3191 40.0093C13.7546 40.6168 15.4951 42.3823 17.4226 44.3393C20.5596 47.5228 24.1906 51.2083 32.1201 51.2083C40.6531 51.2083 45.9851 46.9433 48.1201 38.4098C44.9206 42.6753 41.1866 44.2748 36.9206 43.2083C34.4856 42.6013 32.7471 40.8353 30.8171 38.8783C27.6821 35.6948 24.0521 32.0093 16.1201 32.0093Z" fill="#2C2E32"/>
</g>
<defs>
<clipPath id="clip0_80_39">
<rect width="64" height="64" fill="white" transform="translate(0.118164 0.00927734)"/>
</clipPath>
</defs>
</svg>
