<svg width="65" height="64" viewBox="0 0 65 64" fill="none" xmlns="http://www.w3.org/2000/svg">
<g clip-path="url(#clip0_80_27)">
<path d="M1.11816 31.9644V63.2144H63.6182V0.714355H1.11816V31.9644ZM51.4832 29.4644C52.9801 29.8117 54.3406 30.5947 55.3932 31.7144C55.9726 32.3176 56.4763 32.9892 56.8932 33.7144C56.8932 33.7944 54.1932 35.6194 52.5482 36.6394C52.4882 36.6794 52.2482 36.4194 51.9832 36.0244C51.6829 35.5062 51.2562 35.0725 50.7429 34.7639C50.2297 34.4553 49.6466 34.2817 49.0482 34.2594C47.1532 34.1294 45.9332 35.1244 45.9432 36.7594C45.9275 37.1664 46.0207 37.5703 46.2132 37.9294C46.6282 38.7944 47.4032 39.3094 49.8332 40.3594C54.3082 42.2844 56.2232 43.5544 57.4132 45.3594C58.7432 47.3594 59.0382 50.5894 58.1382 52.9794C57.1382 55.5794 54.6882 57.3444 51.2232 57.9294C49.6406 58.1106 48.0416 58.0938 46.4632 57.8794C44.0542 57.4886 41.8321 56.3416 40.1182 54.6044C39.5432 53.9694 38.4232 52.3144 38.4932 52.1944C38.6757 52.0589 38.8679 51.9369 39.0682 51.8294L41.3682 50.5094L43.1632 49.4694L43.5382 50.0244C44.171 50.9297 44.9764 51.7011 45.9082 52.2944C47.9082 53.3444 50.6382 53.1994 51.9882 51.9844C52.4414 51.5391 52.7242 50.949 52.7872 50.3168C52.8503 49.6846 52.6896 49.0503 52.3332 48.5244C51.8332 47.8294 50.8332 47.2444 48.0382 46.0244C44.8132 44.6344 43.4232 43.7744 42.1532 42.4044C41.3603 41.5003 40.775 40.4337 40.4382 39.2794C40.1869 37.9606 40.1498 36.6099 40.3282 35.2794C40.9932 32.1644 43.3282 29.9894 46.7382 29.3444C48.3174 29.149 49.917 29.1928 51.4832 29.4744V29.4644ZM36.8132 32.0844V34.6444H28.6982V57.7594H22.9432V34.6394H14.8082V32.1394C14.7863 31.2787 14.8097 30.4175 14.8782 29.5594C14.9082 29.5194 19.8782 29.4994 25.8782 29.5094H36.7832L36.8132 32.0844Z" fill="#2C2E32"/>
</g>
<defs>
<clipPath id="clip0_80_27">
<rect width="64" height="64" fill="white" transform="translate(0.118164 0.00927734)"/>
</clipPath>
</defs>
</svg>
