<svg width="64" height="64" viewBox="0 0 64 64" fill="none" xmlns="http://www.w3.org/2000/svg">
<path d="M53.3333 42.6668V18.6668C53.3333 17.2523 52.7714 15.8958 51.7712 14.8956C50.771 13.8954 49.4145 13.3335 48 13.3335H16C14.5855 13.3335 13.2289 13.8954 12.2287 14.8956C11.2285 15.8958 10.6666 17.2523 10.6666 18.6668V42.6668M53.3333 42.6668H10.6666M53.3333 42.6668L56.7466 49.4668C56.9522 49.8748 57.0496 50.3287 57.0293 50.7851C57.009 51.2415 56.8719 51.685 56.631 52.0732C56.39 52.4613 56.0535 52.7811 55.6535 53.0018C55.2535 53.2225 54.8035 53.3367 54.3466 53.3335H9.65331C9.19648 53.3367 8.74649 53.2225 8.34649 53.0018C7.94649 52.7811 7.6099 52.4613 7.36898 52.0732C7.12806 51.685 6.99089 51.2415 6.97064 50.7851C6.95039 50.3287 7.04772 49.8748 7.25331 49.4668L10.6666 42.6668" stroke="#2880F6" stroke-width="6" stroke-linecap="round" stroke-linejoin="round"/>
</svg>
