<svg width="64" height="64" viewBox="0 0 64 64" fill="none" xmlns="http://www.w3.org/2000/svg">
<path d="M36.0001 18.6667C36.7365 18.6667 37.3334 18.0697 37.3334 17.3333C37.3334 16.597 36.7365 16 36.0001 16C35.2637 16 34.6667 16.597 34.6667 17.3333C34.6667 18.0697 35.2637 18.6667 36.0001 18.6667Z" fill="#2880F6" stroke="#2880F6" stroke-width="5" stroke-linecap="round" stroke-linejoin="round"/>
<path d="M46.6666 29.3332C47.403 29.3332 47.9999 28.7362 47.9999 27.9998C47.9999 27.2635 47.403 26.6665 46.6666 26.6665C45.9302 26.6665 45.3333 27.2635 45.3333 27.9998C45.3333 28.7362 45.9302 29.3332 46.6666 29.3332Z" fill="#2880F6" stroke="#2880F6" stroke-width="5" stroke-linecap="round" stroke-linejoin="round"/>
<path d="M22.6666 21.3332C23.403 21.3332 23.9999 20.7362 23.9999 19.9998C23.9999 19.2635 23.403 18.6665 22.6666 18.6665C21.9302 18.6665 21.3333 19.2635 21.3333 19.9998C21.3333 20.7362 21.9302 21.3332 22.6666 21.3332Z" fill="#2880F6" stroke="#2880F6" stroke-width="5" stroke-linecap="round" stroke-linejoin="round"/>
<path d="M17.3333 34.6667C18.0697 34.6667 18.6667 34.0697 18.6667 33.3333C18.6667 32.597 18.0697 32 17.3333 32C16.597 32 16 32.597 16 33.3333C16 34.0697 16.597 34.6667 17.3333 34.6667Z" fill="#2880F6" stroke="#2880F6" stroke-width="5" stroke-linecap="round" stroke-linejoin="round"/>
<path d="M31.9999 5.3335C17.3333 5.3335 5.33325 17.3335 5.33325 32.0002C5.33325 46.6668 17.3333 58.6668 31.9999 58.6668C34.4693 58.6668 36.3946 56.6775 36.3946 54.1655C36.3946 53.0002 35.9146 51.9388 35.2293 51.1655C34.4559 50.3948 34.0612 49.4268 34.0612 48.1655C34.0511 47.5786 34.1593 46.9957 34.3792 46.4514C34.5992 45.9072 34.9265 45.4128 35.3415 44.9978C35.7566 44.5827 36.251 44.2554 36.7952 44.0355C37.3394 43.8155 37.9223 43.7074 38.5092 43.7175H43.8319C51.9679 43.7175 58.6453 37.0428 58.6453 28.9068C58.5733 16.0322 46.5626 5.3335 31.9999 5.3335Z" stroke="#2880F6" stroke-width="6" stroke-linecap="round" stroke-linejoin="round"/>
</svg>
