<svg width="65" height="64" viewBox="0 0 65 64" fill="none" xmlns="http://www.w3.org/2000/svg">
<g clip-path="url(#clip0_80_97)">
<path d="M43.1542 12.3413C43.0928 12.3409 43.0323 12.3564 42.9787 12.3863C42.9228 12.4189 42.8761 12.4653 42.8433 12.5211C42.8105 12.5768 42.7925 12.6401 42.7912 12.7048V22.1698C42.7901 22.2164 42.7774 22.2619 42.7544 22.3024C42.7313 22.3429 42.6986 22.3771 42.6592 22.4018C42.6192 22.4233 42.5746 22.4346 42.5292 22.4346C42.4838 22.4346 42.4391 22.4233 42.3992 22.4018L40.8662 21.5153C40.7537 21.4508 40.6263 21.4169 40.4967 21.4169C40.367 21.4169 40.2397 21.4508 40.1272 21.5153L33.9932 25.0823C33.8795 25.1463 33.7848 25.2392 33.7186 25.3516C33.6524 25.464 33.617 25.5919 33.6162 25.7223V32.8413C33.6162 33.1033 33.7617 33.3518 33.9932 33.4828L40.1282 37.0503C40.2405 37.1146 40.3677 37.1484 40.4972 37.1484C40.6266 37.1484 40.7538 37.1146 40.8662 37.0503L47.0012 33.4828C47.2327 33.3518 47.3782 33.1033 47.3782 32.8413V15.0933C47.3782 14.8168 47.2327 14.5683 47.0012 14.4383L43.3412 12.3863C43.2832 12.357 43.2192 12.3416 43.1542 12.3413ZM6.96119 21.2243C6.84619 21.2243 6.73069 21.2673 6.62969 21.3243L0.494685 24.8788C0.379488 24.9446 0.283884 25.0398 0.217711 25.1547C0.151538 25.2697 0.117184 25.4002 0.118185 25.5328L0.133185 35.0833C0.133185 35.2148 0.204185 35.3463 0.320185 35.4048C0.37392 35.4404 0.436963 35.4594 0.501435 35.4594C0.565908 35.4594 0.628951 35.4404 0.682685 35.4048L4.33019 33.3083C4.44363 33.244 4.53806 33.1508 4.60392 33.0383C4.66977 32.9257 4.70471 32.7977 4.70519 32.6673V28.1978C4.70519 27.9358 4.85019 27.6873 5.08219 27.5563L6.62969 26.6538C6.74278 26.5848 6.87324 26.5496 7.00569 26.5523C7.13569 26.5523 7.26669 26.5808 7.36819 26.6538L8.91619 27.5563C9.14769 27.6873 9.29319 27.9358 9.29319 28.1978V32.6678C9.29319 32.9288 9.43719 33.1778 9.66819 33.3078L13.2862 35.4048C13.3424 35.4404 13.4076 35.4592 13.4742 35.4592C13.5407 35.4592 13.6059 35.4404 13.6622 35.4048C13.7198 35.3734 13.7678 35.3268 13.801 35.2702C13.8342 35.2136 13.8514 35.149 13.8507 35.0833V25.5328C13.8507 25.2708 13.7057 25.0228 13.4737 24.8913L7.35319 21.3243C7.25027 21.2692 7.13742 21.235 7.02119 21.2238H6.96069L6.96119 21.2243ZM57.2962 21.3278V21.3288L57.2952 21.3298C57.1687 21.3298 57.0427 21.3623 56.9267 21.4283L50.7912 24.9933C50.5597 25.1253 50.4162 25.3728 50.4162 25.6353V32.7553C50.4162 33.0173 50.5597 33.2653 50.7912 33.3958L56.8827 36.8903C56.9924 36.9548 57.1174 36.9887 57.2447 36.9887C57.372 36.9887 57.4969 36.9548 57.6067 36.8903L61.2967 34.8238C61.3541 34.7922 61.4019 34.7456 61.4349 34.689C61.4679 34.6324 61.485 34.5679 61.4842 34.5023C61.4847 34.437 61.4675 34.3728 61.4345 34.3165C61.4015 34.2601 61.3539 34.2138 61.2967 34.1823L55.1332 30.6143C55.0768 30.5812 55.03 30.5342 54.9971 30.4777C54.9643 30.4212 54.9466 30.3572 54.9457 30.2918V28.0643C54.9451 27.9992 54.9623 27.9351 54.9953 27.8789C55.0283 27.8227 55.076 27.7765 55.1332 27.7453L57.0602 26.6388C57.1165 26.6033 57.1817 26.5845 57.2482 26.5845C57.3147 26.5845 57.3799 26.6033 57.4362 26.6388L59.3587 27.7453C59.4147 27.7781 59.4613 27.8245 59.4943 27.8804C59.5273 27.9362 59.5455 27.9995 59.5472 28.0643V29.8113C59.5472 29.9428 59.6192 30.0738 59.7347 30.1318C59.7911 30.1676 59.8564 30.1865 59.9232 30.1865C59.9899 30.1865 60.0553 30.1676 60.1117 30.1318L63.7572 27.9918C63.869 27.9269 63.9616 27.8334 64.0255 27.721C64.0894 27.6085 64.1222 27.4811 64.1207 27.3518V25.6193C64.1207 25.3573 63.9747 25.1098 63.7572 24.9783L57.6667 21.4278C57.5542 21.3628 57.4266 21.3282 57.2967 21.3273L57.2962 21.3278ZM23.7747 21.3523C23.655 21.3526 23.5374 21.3841 23.4337 21.4438L17.3487 24.9773L19.4777 28.8823L23.8467 21.3593C23.8229 21.3563 23.7991 21.3541 23.7752 21.3528H23.7742L23.7747 21.3523ZM24.0577 21.4263L28.3612 28.8333L30.3837 25.1108C30.3462 25.0724 30.3042 25.0387 30.2587 25.0103L27.1232 23.1888L24.1047 21.4448C24.0897 21.4373 24.0732 21.4323 24.0577 21.4263ZM23.9327 21.4563L19.5457 29.0083L23.8967 36.9908C23.9087 36.9883 23.9207 36.9873 23.9327 36.9838L28.2922 28.9603L23.9322 21.4568L23.9327 21.4563ZM17.2442 25.0423C17.1541 25.1054 17.0807 25.1895 17.0305 25.2873C16.9803 25.3852 16.9548 25.4938 16.9562 25.6038V32.7543C16.9562 32.8683 16.9872 32.9793 17.0402 33.0778L19.4042 29.0063L17.2442 25.0423ZM30.4692 25.2133L28.4337 28.9583L30.5927 32.6753V25.6038C30.5927 25.4638 30.5467 25.3273 30.4687 25.2138L30.4692 25.2133ZM40.4972 26.6458C40.5297 26.6458 40.5622 26.6533 40.5922 26.6683L42.6887 27.8923C42.7467 27.9213 42.7762 27.9928 42.7762 28.0513V30.4978C42.7762 30.5708 42.7462 30.6298 42.6887 30.6588L40.5907 31.8813C40.5613 31.8956 40.5291 31.903 40.4964 31.903C40.4638 31.903 40.4316 31.8956 40.4022 31.8813L38.3047 30.6598C38.2467 30.6308 38.2167 30.5573 38.2167 30.4988V28.0523C38.2167 27.9793 38.2472 27.9218 38.3047 27.8923L40.4022 26.6683C40.4317 26.6535 40.4642 26.6458 40.4972 26.6458ZM57.2747 27.6358C57.2488 27.6361 57.2235 27.6441 57.2022 27.6588L56.0292 28.3433C56.0071 28.357 55.989 28.3762 55.9765 28.3989C55.9641 28.4217 55.9578 28.4474 55.9582 28.4733V29.8433C55.9582 29.9013 55.9857 29.9453 56.0292 29.9743L57.2022 30.6588C57.2236 30.673 57.2487 30.6805 57.2744 30.6805C57.3001 30.6805 57.3253 30.673 57.3467 30.6588L58.5187 29.9738C58.5408 29.9599 58.5589 29.9407 58.5715 29.9179C58.5841 29.895 58.5907 29.8694 58.5907 29.8433V28.4743C58.5909 28.4483 58.5843 28.4227 58.5717 28.3999C58.5591 28.3771 58.5408 28.358 58.5187 28.3443L57.3467 27.6588C57.3253 27.6447 57.3003 27.6372 57.2747 27.6373V27.6363V27.6358ZM28.3652 29.0858L24.1092 36.9183L24.1162 36.9148L30.2597 33.3463C30.4312 33.2493 30.5412 33.0833 30.5782 32.8948L28.3652 29.0858ZM19.4737 29.1333L17.1162 33.1918C17.1662 33.2533 17.2247 33.3068 17.2912 33.3468L23.3682 36.8778L23.4332 36.9153H23.4347C23.482 36.9422 23.5324 36.9633 23.5847 36.9783C23.6002 36.9833 23.6157 36.9858 23.6307 36.9893C23.6607 36.9958 23.6897 37.0003 23.7197 37.0028C23.7342 37.0043 23.7482 37.0038 23.7627 37.0038L19.4737 29.1333ZM31.7287 35.8298C31.5152 35.8298 31.3022 35.8798 31.1212 35.9818L25.3462 39.3468C25.1608 39.4553 25.0071 39.6105 24.9004 39.7969C24.7937 39.9834 24.7378 40.1945 24.7382 40.4093V47.1193C24.7382 47.5563 24.9697 47.9638 25.3457 48.1828L26.8662 49.0558C27.6037 49.4198 27.8637 49.4178 28.1962 49.4178C29.2812 49.4178 29.9042 48.7488 29.9042 47.5988V40.9773C29.9037 40.9314 29.8855 40.8874 29.8533 40.8546C29.8212 40.8218 29.7776 40.8027 29.7317 40.8013H28.9942C28.9477 40.8018 28.9032 40.8205 28.8703 40.8534C28.8374 40.8863 28.8187 40.9308 28.8182 40.9773V47.6013C28.8182 48.1108 28.2852 48.6208 27.4317 48.1843L25.8537 47.2673C25.7957 47.2383 25.7667 47.1638 25.7667 47.1058V40.3933C25.7667 40.3353 25.7957 40.2618 25.8537 40.2333L31.6262 36.8853C31.6697 36.8563 31.7422 36.8563 31.8012 36.8853L37.5732 40.2328C37.6307 40.2628 37.6612 40.3208 37.6612 40.3928V47.1048C37.6612 47.1773 37.6312 47.2373 37.5732 47.2663L31.7997 50.6293C31.7562 50.6583 31.6837 50.6583 31.6247 50.6293L30.1502 49.7408C30.1062 49.7118 30.0482 49.6978 30.0052 49.7258C29.6002 49.9598 29.5287 49.9898 29.1377 50.1208C29.0507 50.1498 28.9062 50.2068 29.1952 50.3668L31.1212 51.5183C31.3092 51.6198 31.5112 51.6773 31.7287 51.6773C31.9457 51.6773 32.1617 51.6198 32.3352 51.5473L38.1082 48.1843C38.2936 48.0753 38.4473 47.9196 38.5539 47.7328C38.6605 47.5459 38.7163 47.3344 38.7157 47.1193V40.4093C38.7157 39.9723 38.4842 39.5663 38.1082 39.3478L32.3352 35.9828C32.1493 35.8812 31.9405 35.8282 31.7287 35.8298ZM40.7422 38.8943C40.4458 38.8955 40.1619 39.0144 39.9531 39.2248C39.7443 39.4352 39.6276 39.7199 39.6287 40.0163C39.6279 40.3126 39.7447 40.597 39.9535 40.8072C40.1623 41.0174 40.4459 41.1361 40.7422 41.1373C41.3507 41.1373 41.8572 40.6273 41.8572 40.0163C41.8558 39.7204 41.738 39.437 41.5294 39.2272C41.3208 39.0173 41.0381 38.898 40.7422 38.8948V38.8943ZM40.7272 39.0823H40.7287C40.8521 39.0808 40.9746 39.1038 41.089 39.1502C41.2035 39.1965 41.3075 39.2651 41.3952 39.352C41.4828 39.4389 41.5523 39.5425 41.5995 39.6565C41.6467 39.7706 41.6707 39.8929 41.6702 40.0163C41.6702 40.5263 41.2497 40.9613 40.7287 40.9613C40.2227 40.9613 39.8017 40.5403 39.8017 40.0163C39.8017 39.4923 40.2362 39.0833 40.7272 39.0823ZM40.3222 39.3893V40.6693H40.5692V40.1628H40.7882C40.8752 40.1628 40.9032 40.1918 40.9182 40.2643C40.9182 40.2793 40.9612 40.5988 40.9612 40.6568H41.2212C41.1912 40.5988 41.1777 40.4228 41.1632 40.3208C41.1492 40.1608 41.1352 40.0453 40.9612 40.0308C41.0482 40.0013 41.1912 39.9583 41.1912 39.7253C41.1912 39.3903 40.9012 39.3903 40.7567 39.3903L40.3222 39.3893ZM40.5412 39.5933H40.7422C40.8152 39.5933 40.9317 39.5933 40.9317 39.7683C40.9317 39.8263 40.9022 39.9433 40.7422 39.9433H40.5412V39.5933ZM33.3067 40.5983C31.6567 40.5983 30.6707 41.2978 30.6707 42.4773C30.6707 43.7443 31.6552 44.0913 33.2327 44.2513C35.1277 44.4413 35.2727 44.7188 35.2727 45.0973C35.2727 45.7523 34.7517 46.0278 33.5362 46.0278C32.0022 46.0278 31.6687 45.6493 31.5527 44.8783C31.5527 44.7903 31.4827 44.7333 31.3957 44.7333H30.6432C30.5968 44.7333 30.5523 44.7518 30.5194 44.7846C30.4866 44.8174 30.4682 44.8619 30.4682 44.9083C30.4682 45.8983 30.9902 47.0618 33.5232 47.0618C35.3457 47.0618 36.4007 46.3338 36.4007 45.0518C36.4007 43.8003 35.5607 43.4648 33.7817 43.2318C31.9867 42.9988 31.7992 42.8678 31.7992 42.4458C31.7992 42.0963 31.9592 41.6313 33.2892 41.6313C34.4767 41.6313 34.9252 41.8933 35.0992 42.6938C35.1075 42.7301 35.1274 42.7626 35.1559 42.7865C35.1845 42.8103 35.22 42.8241 35.2572 42.8258H36.0242C36.0677 42.8258 36.1127 42.7973 36.1422 42.7683C36.1693 42.7296 36.1843 42.6836 36.1852 42.6363C36.0697 41.2388 35.1592 40.5983 33.3067 40.5983Z" fill="#2C2E32"/>
</g>
<defs>
<clipPath id="clip0_80_97">
<rect width="64" height="64" fill="white" transform="translate(0.118164 0.00927734)"/>
</clipPath>
</defs>
</svg>
